<svg width="24" height="24" viewBox="0 0 24 24" fill="none" xmlns="http://www.w3.org/2000/svg">
<g clip-path="url(#clip0_278_954)">
<path d="M18.13 5.55L20.41 6.12L22.96 3.6C23.03 3.6 23.15 4.12 23.17 4.22C23.66 6.93 21.45 9.47 18.72 9.49C18.15 9.49 17.59 9.27 17.04 9.2L9.19002 17.11C10.04 19.26 9.01002 21.79 6.92002 22.76C5.93002 23.22 4.64002 23.38 3.62002 22.94L6.14002 20.39C6.17002 20.31 6.14002 20.24 6.14002 20.17C6.10002 19.85 5.75002 18.53 5.62002 18.22C5.59002 18.16 5.59002 18.09 5.51002 18.08L3.29002 17.54L0.810021 20C0.660021 20.16 0.560021 19.56 0.540021 19.45C-0.0499789 16.1 2.99002 13.66 6.20002 14.36C6.37002 14.4 6.51002 14.54 6.66002 14.47L14.51 6.56C13.65 4.42 14.7 1.88 16.78 0.910003C17.78 0.450003 19.06 0.290003 20.08 0.730003L17.56 3.28L18.13 5.56V5.55Z" stroke="#2E6DF1" stroke-width="0.92" stroke-linecap="round" stroke-linejoin="round"/>
</g>
<defs>
<clipPath id="clip0_278_954">
<rect width="23.69" height="23.67" fill="white"/>
</clipPath>
</defs>
</svg>
