<svg width="27" height="25" viewBox="0 0 27 25" fill="none" xmlns="http://www.w3.org/2000/svg">
<path d="M21.4101 16.11C21.6201 17.65 20.3901 18.97 18.8301 18.77C18.8801 19.91 18.4301 20.86 17.3301 21.27C16.9501 21.41 16.4001 21.38 16.1701 21.48C15.8301 21.63 14.6401 23.1 14.1901 23.46C12.6501 24.69 10.5301 23.87 10.3301 21.9C10.3101 21.68 10.4501 21.47 10.3301 21.4C8.80007 21.61 7.53007 20.33 7.75006 18.78C6.15006 18.97 4.90006 17.72 5.09007 16.12C4.04007 16.27 2.97006 15.71 2.59006 14.71C2.44006 14.32 2.49006 13.83 2.38006 13.55C2.29007 13.33 1.69006 12.74 1.50006 12.46C-0.289935 9.84999 -0.359935 6.51998 1.27006 3.82998C3.78007 -0.310015 9.64007 -1.18002 13.2201 2.09998C16.2201 -0.500015 20.6601 -0.600015 23.6901 2.01998C26.7201 4.63998 27.2701 9.06998 25.0701 12.34C24.8601 12.65 24.2101 13.31 24.1201 13.53C24.0201 13.79 24.0601 14.25 23.9601 14.58C23.6601 15.63 22.4701 16.28 21.4101 16.11ZM12.6501 2.61998C11.3701 1.68998 9.93007 0.969985 8.31007 0.899985C2.11007 0.629985 -1.39994 8.04998 2.73006 12.67C4.13006 11.45 5.51007 8.84999 7.71006 10.18C8.45006 10.63 8.92006 11.66 8.70006 12.5C10.3601 12.29 11.5801 13.5 11.3601 15.16C12.9101 14.84 14.2001 16.19 14.0201 17.74C15.6501 17.56 16.9801 18.96 16.6001 20.57C17.7001 20.48 18.3401 19.33 17.7301 18.36L12.5601 13.14C12.1601 12.69 12.5801 12.18 13.1201 12.49L18.2301 17.61C19.9301 18.66 21.4001 16.8 20.0101 15.28C18.6201 13.76 16.6401 12.27 15.3601 10.7C14.9301 10.17 14.9001 9.62998 15.7101 9.83998L20.6901 14.83C22.1401 16.23 24.1401 14.33 22.8001 12.81L15.9601 5.98998C14.8601 6.65998 13.6901 8.71999 12.3601 8.88999C10.4801 9.13999 9.10006 7.39998 9.90006 5.65998C10.0601 5.30998 10.6001 4.75998 10.8901 4.45998C11.4201 3.89998 12.0401 3.39998 12.5801 2.83998L12.6601 2.61998H12.6501ZM23.6001 3.09998C21.4101 0.829985 17.9901 0.229985 15.1701 1.73998C14.2201 2.24998 11.4301 4.82998 10.8101 5.70998C9.79007 7.15998 11.4301 8.85998 12.9101 7.72998C13.8301 7.02998 14.7001 5.77998 15.6101 5.01998L16.0301 4.94998L23.8601 12.58C26.2401 9.81998 26.1401 5.71998 23.6101 3.09998H23.6001ZM6.51007 10.66C6.34007 10.66 6.07007 10.72 5.90006 10.78C5.53007 10.93 3.76006 12.67 3.53006 13.04C2.67006 14.44 4.18007 15.93 5.55007 15.06C5.84007 14.88 7.52006 13.18 7.69006 12.9C8.28006 11.9 7.69006 10.65 6.51007 10.65V10.66ZM6.67006 15.11C6.49007 15.31 6.06006 15.78 5.99006 16.02C5.60006 17.5 7.11007 18.51 8.27007 17.61C8.62007 17.34 10.1001 15.88 10.3301 15.55C11.2001 14.29 9.65006 12.69 8.36006 13.49C8.11006 13.64 6.92006 14.83 6.67006 15.11ZM11.4201 15.96C11.1901 16 11.0201 16.1 10.8401 16.24C10.4601 16.52 8.80006 18.23 8.65006 18.61C8.10006 20.04 9.67006 21.15 10.9201 20.28C11.2601 20.04 12.9601 18.3 13.0801 17.97C13.4901 16.8 12.6401 15.76 11.4201 15.97V15.96ZM14.0001 18.62C13.8101 18.66 13.4901 18.86 13.3301 18.98C12.9201 19.3 11.3401 20.91 11.2201 21.34C10.8801 22.68 12.2401 23.73 13.4401 22.96C13.7201 22.78 15.5801 20.9 15.6901 20.65C16.2201 19.47 15.2501 18.35 13.9901 18.61L14.0001 18.62Z" fill="#2E6DF1" stroke="#2E6DF1" stroke-width="0.2" stroke-miterlimit="10"/>
</svg>
