<svg width="61" height="45" viewBox="0 0 61 45" fill="none" xmlns="http://www.w3.org/2000/svg">
<g clip-path="url(#clip0_278_503)">
<path d="M0.0529956 39.3151C0.0529956 42.1384 2.4094 44.4196 5.26589 44.4271L13.8278 44.4422C13.8278 44.4422 13.8505 44.4422 13.8581 44.4422L26.3599 44.4572C29.9589 44.4572 33.3988 43.0117 35.8992 40.4369L47.4237 28.5641H49.6058V28.9631C49.6058 29.5729 50.0983 30.0698 50.712 30.0774H59.2057C59.5012 30.0774 59.7891 29.9569 59.9937 29.7536C60.2058 29.5428 60.3195 29.2643 60.3195 28.9706V12.0611C60.3195 11.4513 59.8194 10.9619 59.2057 10.9619H50.712C50.0983 10.9619 49.6058 11.4588 49.6058 12.0611V12.4601H39.8543C37.7556 12.4601 35.7477 13.3109 34.2853 14.8166L28.6481 20.6062C28.6481 20.6062 28.633 20.6213 28.6254 20.6288L21.2001 28.2629C20.2075 29.2868 19.715 30.6119 19.7226 31.9294C19.7226 32.7275 19.9196 33.5255 20.306 34.2558L5.27347 34.2332C2.41698 34.2332 0.0454187 36.5069 0.0378418 39.3302L0.0529956 39.3151ZM2.2806 39.3151C2.2806 37.7115 3.58382 36.4241 5.27347 36.4316L22.6473 36.4617C24.5945 37.3652 27.0115 36.9737 28.6027 35.3399L38.3087 25.3493C38.733 24.9126 38.7178 24.2125 38.2784 23.7909C37.8389 23.3693 37.1343 23.3768 36.7099 23.8135L27.004 33.7965C25.8295 35.0087 23.9959 35.0463 22.8367 33.9321C21.6774 32.8178 21.6547 30.9959 22.8291 29.7913L30.262 22.1421C30.262 22.1421 30.2696 22.1421 30.2772 22.1345L35.9144 16.3374C36.9524 15.2683 38.3844 14.666 39.8771 14.666H49.6285V26.3431H46.9615C46.6357 26.3431 46.3174 26.4937 46.1129 26.7421L34.3157 38.901C32.2396 41.0392 29.3755 42.2513 26.3827 42.2438L5.28862 42.2137C3.59898 42.2137 2.29575 40.9263 2.30333 39.3226L2.2806 39.3151Z" fill="#2B5264"/>
<path d="M12.3868 26.6742C12.272 26.6742 12.1573 26.6289 12.0744 26.5383L1.85515 15.5783C-0.618383 12.9241 -0.618383 8.60622 1.85515 5.95202C3.06641 4.66376 4.67293 3.95166 6.38145 3.95166C8.08997 3.95166 9.69649 4.66376 10.9078 5.95849L12.3932 7.54454L13.8275 6.01028C15.0261 4.72203 16.6326 4.00992 18.3411 4.00992C20.0496 4.00992 21.6561 4.72203 22.8674 6.01676C25.3473 8.67096 25.3473 12.9889 22.8674 15.6431L12.6928 26.5383C12.6099 26.6224 12.5015 26.6742 12.3804 26.6742H12.3868Z" fill="#41B6A6"/>
</g>
<defs>
<clipPath id="clip0_278_503">
<rect width="60.3347" height="44.4571" fill="white"/>
</clipPath>
</defs>
</svg>
