<svg width="94" height="84" viewBox="0 0 94 84" fill="none" xmlns="http://www.w3.org/2000/svg">
<g clip-path="url(#clip0_278_406)">
<path d="M1.20722 30.3482C0.905414 30.0799 0.60361 29.4763 0.469474 29.0739C0.335339 28.7385 0 27.5313 0 27.263V20.8916C0.167669 21.0257 1.20722 22.0653 1.20722 22.1324V30.3482Z" fill="#41B6A6"/>
<path d="M65.7935 21.4281C65.7935 21.4281 68.2079 22.9706 68.4427 23.1718C72.4667 26.4581 74.0428 30.8511 70.5553 35.3111C66.7324 40.207 58.0807 42.9903 52.1787 44.0634C43.6276 45.606 34.5735 45.3712 26.1229 43.3927C26.1229 43.2921 26.9277 43.3257 27.0619 43.3257C31.0189 43.5269 34.6405 43.5604 38.5975 43.2251C47.0481 42.4873 57.1082 42.1855 64.4521 37.4908C69.2139 34.4727 71.5948 29.7445 67.0342 25.1168C66.8666 24.9491 65.76 24.1778 65.76 24.0772V21.3945L65.7935 21.4281Z" fill="#41B6A6"/>
<path d="M6.74048 39.7378C6.74048 39.7378 6.74048 42.4205 6.74048 42.8564C6.74048 43.2253 6.94169 43.6948 6.94169 44.0637C6.94169 44.8014 6.57281 45.4385 6.63988 46.344C7.14289 53.2184 18.7121 56.4712 24.2787 57.4772C32.6286 58.9527 40.945 59.6234 49.3956 58.5838C50.6363 58.4162 51.9441 58.0808 53.1178 57.9467C53.252 57.9467 53.5202 57.8461 53.4867 58.0473C48.9932 59.3886 44.2984 60.2605 39.6037 60.5623C29.8118 61.1659 15.627 59.4892 7.78003 53.1513C3.25296 49.4626 1.94514 44.5667 6.30454 40.0731C6.37161 40.0061 6.63988 39.6372 6.74048 39.7713V39.7378Z" fill="#41B6A6"/>
<path d="M31.6897 62.7085V72.3998C30.7507 72.2657 29.6106 72.3328 28.7052 72.1986C28.6046 72.1986 28.4369 72.098 28.4369 72.0309V62.5073L31.6897 62.7085Z" fill="#41B6A6"/>
<path d="M33.4333 31.6558H30.1805V41.347H33.4333V31.6558Z" fill="#41B6A6"/>
<path d="M47.7188 46.9141V56.4377C47.7188 56.4377 47.5512 56.5718 47.4506 56.6053C46.6458 56.7395 45.6397 56.6054 44.8349 56.8401C44.7343 56.8736 44.4661 56.773 44.4661 56.6724V47.1488L47.7188 46.9476V46.9141Z" fill="#41B6A6"/>
<path d="M47.8193 61.7358V71.3265L44.5665 71.8631V62.1718L47.8193 61.7358Z" fill="#41B6A6"/>
<path d="M49.5633 29.2749V38.6979C49.5633 38.9327 46.713 39.6704 46.3105 39.6369V30.0462L49.5633 29.2749Z" fill="#41B6A6"/>
<path d="M17.337 30.0462V39.6369C16.2304 39.5027 15.0567 39.2009 14.0842 38.6979V29.2749L17.337 30.0462Z" fill="#41B6A6"/>
<path d="M31.5889 46.5787V56.1023C31.5889 56.1023 31.4548 56.2364 31.3542 56.2364C31.0524 56.2364 28.4703 55.767 28.3697 55.6328C28.3697 55.6328 28.3026 55.2975 28.3026 55.2639V46.1763L31.5554 46.6122L31.5889 46.5787Z" fill="#41B6A6"/>
<path d="M15.593 69.1472C15.593 69.1472 12.642 68.0741 12.3402 67.7723V58.517C12.3402 58.517 12.5079 58.3158 12.5749 58.4164L15.6265 59.7242V69.1472H15.593Z" fill="#41B6A6"/>
<path d="M60.5623 53.5536V44.1306L63.6138 42.8228L63.8486 42.9234V52.1787C62.809 52.7152 61.7359 53.2853 60.5958 53.5536H60.5623Z" fill="#41B6A6"/>
<path d="M11.972 37.7254C11.972 37.7254 11.905 37.8596 11.972 37.9937C11.7708 38.1278 9.08811 36.9206 8.71924 36.6188V27.1958L11.8714 28.4366C11.8714 28.4366 11.972 28.906 11.972 28.9731C11.972 31.7564 12.1732 34.9757 11.972 37.6919V37.7254Z" fill="#41B6A6"/>
<path d="M37.0217 62.8091H33.8695V72.5004H37.0217V62.8091Z" fill="#41B6A6"/>
<path d="M42.2524 47.249H39.1002V56.9403H42.2524V47.249Z" fill="#41B6A6"/>
<path d="M28.0006 31.5552V41.2465C27.0616 41.1124 26.0221 41.1794 25.1167 41.0453C25.0161 41.0453 24.8484 40.9447 24.8484 40.8776V31.354L28.0006 31.5552Z" fill="#41B6A6"/>
<path d="M38.7657 31.354V41.0453L35.6135 41.2465V31.5552L38.7657 31.354Z" fill="#41B6A6"/>
<path d="M42.3868 62.5073V72.1986L39.201 72.3998V62.7085L42.3868 62.5073Z" fill="#41B6A6"/>
<path d="M22.6691 31.019V40.7103L19.4834 40.1737V30.4824L22.6691 31.019Z" fill="#41B6A6"/>
<path d="M44.1304 30.583V40.1737L40.9447 40.7102V31.0189L44.1304 30.583Z" fill="#41B6A6"/>
<path d="M26.2567 62.1718V71.8631L23.1045 71.3265V61.7358L26.2567 62.1718Z" fill="#41B6A6"/>
<path d="M53.0511 46.1426V55.7333L49.8989 56.3033V46.5785L53.0511 46.1426Z" fill="#41B6A6"/>
<path d="M36.9211 47.1488V56.8401L33.7689 56.5047V46.9141L36.9211 47.1488Z" fill="#41B6A6"/>
<path d="M58.3824 44.835V54.4256L55.2302 55.1969V45.6062L58.3824 44.835Z" fill="#41B6A6"/>
<path d="M20.9254 61.1995V70.7902L17.7732 70.0189V60.4282L20.9254 61.1995Z" fill="#41B6A6"/>
<path d="M53.1508 60.4282V70.0189L49.9987 70.8908V61.1995L53.1508 60.4282Z" fill="#41B6A6"/>
<path d="M26.1568 45.6062V55.1969L23.1723 54.4256L22.9711 54.258V44.835L26.1568 45.6062Z" fill="#41B6A6"/>
<path d="M63.9495 55.2977V64.1841C63.4465 64.7207 62.8429 65.1902 62.2393 65.6261C61.7698 65.9614 61.1997 66.3974 60.6632 66.5315V57.3097C61.6692 56.8067 62.6082 55.9684 63.5807 55.4318C63.7148 55.3647 63.7819 55.2641 63.9495 55.2977Z" fill="#41B6A6"/>
<path d="M51.7426 37.9937V28.403C52.8492 28.1683 53.8552 27.6317 54.8947 27.1958V36.6188C53.8887 37.1554 52.8492 37.6919 51.7426 37.9937Z" fill="#41B6A6"/>
<path d="M55.3311 69.147V59.724L58.4832 58.3491V67.7721C57.5108 68.3422 56.4041 68.8452 55.3311 69.147Z" fill="#41B6A6"/>
<path d="M20.7911 53.5538C19.6845 53.2184 18.6449 52.7154 17.6389 52.1789V42.7559C18.6449 43.2924 19.8186 43.5607 20.7911 44.1307V53.5538Z" fill="#41B6A6"/>
<path d="M69.1803 39.7378V48.7249C68.2078 49.5297 67.2018 50.4351 66.0281 50.9716V41.6157C67.2018 41.2133 68.0736 40.2743 69.1803 39.7713V39.7378Z" fill="#41B6A6"/>
<path d="M10.1275 57.1753V66.5312C8.92031 66.0282 7.98136 65.0893 6.97534 64.2844V55.2974L9.62452 56.9405L10.1275 57.1417V57.1753Z" fill="#41B6A6"/>
<path d="M60.2269 24.144V33.1311C59.2544 33.9359 58.2819 34.9084 57.0747 35.3779V26.1561L60.2269 24.144Z" fill="#41B6A6"/>
<path d="M6.53939 35.4785C5.43277 34.7743 4.32616 34.0365 3.38721 33.1311V24.144L6.53939 26.1561V35.4785Z" fill="#41B6A6"/>
<path d="M15.4598 50.9377C15.4598 50.9377 13.6825 49.8981 13.4477 49.7304C13.0118 49.3951 12.5759 49.0262 12.1735 48.5903V40.4751C13.2801 40.844 14.4873 41.0116 15.4262 41.7159V50.9377H15.4598Z" fill="#41B6A6"/>
<path d="M55.6666 38.765L58.081 37.4236C61.8704 35.1098 65.3579 31.7564 65.8273 27.0952C69.952 31.5888 64.5866 35.2775 60.7302 37.0212C59.1206 37.759 57.3768 38.3961 55.6331 38.7315L55.6666 38.765Z" fill="#41B6A6"/>
<path d="M62.4069 30.3482V22.1324C62.4069 22.1324 63.4464 21.0257 63.6141 20.8916V27.3636C63.6141 27.3636 63.3793 28.4032 63.3123 28.6044C63.1446 29.1745 62.8763 30.0128 62.4069 30.3817V30.3482Z" fill="#41B6A6"/>
<path d="M72.5674 36.4512V42.4873C72.5674 43.225 72.0309 44.9352 71.6285 45.6059C71.5614 45.7401 71.5279 45.9077 71.3602 45.9413V37.7255C71.3602 37.7255 72.165 36.753 72.2992 36.6188C72.3662 36.5518 72.2992 36.4176 72.5339 36.4847L72.5674 36.4512Z" fill="#41B6A6"/>
<path d="M4.79548 61.5008C4.56074 61.4002 4.46014 61.0984 4.35954 60.8972C3.99066 60.1595 3.58826 58.7846 3.58826 57.9798V52.212C3.58826 52.212 3.75593 52.0108 3.78946 52.0443C3.78946 52.3126 4.76194 53.218 4.76194 53.2851V61.5008H4.79548Z" fill="#41B6A6"/>
<path d="M67.2018 52.9165V58.6508C67.2018 58.8855 66.9336 59.7574 66.833 60.0257L66.0952 61.5347V53.5201C66.0952 53.5201 67.0342 52.95 67.1683 52.9165H67.2018Z" fill="#41B6A6"/>
<path d="M8.91964 39.2012L9.99273 39.7042L10.0598 45.7067L9.89212 45.9415C9.75799 45.4385 9.45618 45.0025 9.28851 44.5331C9.22145 44.2983 8.88611 43.3594 8.88611 43.1917V39.2012H8.91964Z" fill="#41B6A6"/>
<path d="M31.4551 6.91077e-05C39.6039 -0.0334648 49.4293 1.44202 56.572 5.53316C64.486 10.0602 66.5651 16.9682 58.3828 22.7696C45.8412 31.6225 18.7458 31.589 5.9694 23.239C-1.60925 18.3431 -2.11226 11.7369 5.53346 6.53917C12.542 1.74383 23.1052 0.0671368 31.4551 6.91077e-05ZM28.8395 2.28037C22.4681 2.54864 14.5541 3.89 8.95392 7.00865C1.77767 11.0662 0.704584 17.2365 8.08204 21.8977C19.1817 28.9398 43.9297 28.9398 55.1636 22.166C61.7362 18.209 62.7422 12.3741 56.0019 7.84699C49.2616 3.31992 37.1559 1.94503 28.8395 2.28037Z" fill="#41B6A6"/>
<path d="M56.6057 18.4437C55.5326 19.4833 53.7217 20.5899 52.3469 21.227C41.5825 26.3577 21.3951 26.4248 10.7313 20.9923C4.02456 17.5718 2.98501 12.81 10.0607 8.88658C20.825 2.88402 43.058 2.91755 53.7888 8.98718C57.5446 11.1333 60.4956 14.5873 56.6057 18.4437ZM35.6135 8.24944C35.9153 7.57876 36.4518 6.06973 35.4123 5.76793C34.0374 5.36552 33.7691 6.97515 33.4002 7.9141C30.3822 7.57876 26.4922 9.28899 27.0288 12.8436C27.4312 15.4928 30.5163 15.5598 32.4948 15.8952C35.5129 16.3982 34.8086 18.5443 32.4948 19.2485C31.4553 19.5839 28.5043 19.3827 27.5653 18.8461C26.1234 18.0413 27.4647 17.0353 26.727 16.2305C25.8551 15.258 24.8156 16.3311 24.715 17.3706C24.4802 19.4497 26.0563 20.8917 27.9677 21.227C27.9007 21.9648 27.2635 22.4678 27.6659 23.2391C27.9677 23.8091 28.8732 23.9433 29.3426 23.5409C29.745 23.2055 30.0468 21.6965 30.181 21.5959C30.3151 21.4618 30.9523 21.6965 31.187 21.6965C34.1044 21.6294 37.9273 19.1479 36.2841 15.8616C35.0434 13.4137 32.1595 14.1514 30.181 13.4472C28.3366 12.7765 29.1079 11.2339 30.4828 10.5297C31.8577 9.82553 33.702 10.0938 35.1105 10.3956C35.8147 10.5297 36.8207 10.9992 36.7871 11.8376C36.7871 12.1058 36.5859 12.307 36.6195 12.7094C36.7201 13.8496 38.2626 14.0508 38.6986 12.9442C39.6375 10.6974 37.7932 8.61831 35.6135 8.28297V8.24944Z" fill="#41B6A6"/>
<path d="M93.7275 59.4221C93.7275 46.3775 83.1307 35.7808 70.0861 35.7808C57.0414 35.7808 46.4447 46.3775 46.4447 59.4221C46.4447 72.4668 57.0414 83.0635 70.0861 83.0635C83.1307 83.0635 93.7275 72.4668 93.7275 59.4221Z" fill="white"/>
<path d="M85.1422 61.4009C85.9805 60.6967 87.2883 61.2668 87.4225 62.3399C87.456 62.6752 87.2548 63.8489 87.0871 64.1172C86.4165 65.2909 84.6392 64.922 84.4715 63.5806C84.438 63.2788 84.5386 62.977 84.6056 62.7088C84.7062 62.1722 84.6727 61.7698 85.1757 61.4009H85.1422Z" fill="#2B5264"/>
<path d="M84.8404 56.1022C85.5446 55.4651 86.5841 55.5992 87.0536 56.4376C87.1877 56.7059 87.3554 57.5777 87.3554 57.8795C87.456 59.6233 85.0751 60.0257 84.6056 58.3155C84.5386 58.0807 84.4044 57.2759 84.4044 57.0412C84.4044 56.7059 84.5721 56.3034 84.8068 56.0687L84.8404 56.1022Z" fill="#2B5264"/>
<path d="M81.0849 73.7746C81.0849 73.7746 81.0514 73.7411 81.0179 73.7746C81.0179 73.7746 81.0179 73.8417 80.9508 73.8752C80.9508 73.8752 80.649 73.9758 80.6155 73.9758C79.3076 74.2776 78.4022 72.6009 79.3747 71.6284C79.6765 71.3266 80.3137 70.7566 80.7161 70.6224C82.0239 70.22 83.0634 71.7961 82.1916 72.8357C82.0574 72.9698 81.2191 73.7746 81.0849 73.7746Z" fill="#2B5264"/>
<path d="M74.3111 74.9819C74.4787 74.1436 75.3171 73.8418 76.0548 73.607C77.7986 73.0369 78.704 75.3172 77.2285 76.1221C76.9267 76.2897 75.9878 76.6586 75.6524 76.6586C74.7805 76.6586 74.1099 75.8538 74.2775 74.9819H74.3111Z" fill="#2B5264"/>
<path d="M69.3815 75.1833C69.3815 75.1833 69.7169 74.9486 69.9181 74.8815C70.1528 74.8144 71.2594 74.7474 71.5277 74.7809C73.0032 75.0156 73.1373 77.0947 71.6618 77.5307C71.3936 77.5977 70.4211 77.6313 70.1193 77.5977C68.9791 77.4301 68.5432 75.9546 69.3815 75.1833Z" fill="#2B5264"/>
<path d="M83.432 66.5981C84.371 65.7598 85.8129 66.464 85.7794 67.7047C85.7794 68.1071 85.1758 69.2137 84.874 69.482C83.7674 70.4545 82.1242 69.3479 82.5937 68.0065C82.6943 67.7383 83.2308 66.7658 83.432 66.5981Z" fill="#2B5264"/>
<path d="M73.7412 43.3258C76.0215 43.7953 78.3018 44.7678 80.2132 46.1427C80.5485 46.3774 80.8168 46.5451 81.0515 46.8804C81.0515 46.8804 81.1521 46.8804 81.2527 46.981C81.4539 47.1151 81.6552 47.3163 81.8228 47.4505C81.9905 47.5846 82.1246 47.6852 82.2588 47.8529L83.7007 46.3774C84.1031 46.1091 84.3043 46.2768 84.3714 46.7127C84.4385 48.2553 84.7738 49.8984 84.8073 51.441C84.8073 52.0781 84.5055 52.38 83.8684 52.3464C82.3258 52.3129 80.6827 51.9775 79.1401 51.944C78.4024 51.7428 78.7377 51.3739 79.073 51.0051C79.4419 50.6027 79.8443 50.2673 80.2132 49.8649C80.2132 49.8649 80.2467 49.8314 80.2467 49.7643C77.3964 47.0145 73.4729 45.5726 69.5159 45.7738C60.7636 46.2097 54.4257 54.2243 55.9347 62.7754C56.1694 64.1839 56.5383 65.3576 57.209 66.6654C58.718 69.6834 61.1995 72.0979 64.2846 73.4728C65.0224 73.8081 65.8607 73.9087 66.0954 74.8476C66.2966 75.7195 65.5589 76.5579 64.687 76.5243C64.2511 76.5243 63.4463 76.1219 63.0439 75.9543C57.1419 73.238 53.252 67.4367 52.9837 60.9646C52.5142 49.7308 62.7421 41.012 73.7412 43.2587V43.3258Z" fill="#2B5264"/>
<path d="M72.6681 53.5869C72.6681 53.5869 72.7352 53.654 72.7352 53.6875C72.7352 55.4648 72.7352 57.2756 72.7017 59.0529C72.7017 59.4553 72.7687 59.9919 72.7017 60.3272C72.7017 60.3943 72.534 60.3608 72.7017 60.4278L72.6346 65.6926H70.3878V57.0409H70.3208C69.516 57.8122 68.4764 58.4158 67.4033 58.7511V56.7056C68.8453 56.102 70.2537 55.1295 70.8573 53.6204H72.6681V53.5869Z" fill="#2B5264"/>
</g>
<defs>
<clipPath id="clip0_278_406">
<rect width="93.7271" height="83.0634" fill="white"/>
</clipPath>
</defs>
</svg>
