<svg width="26" height="23" viewBox="0 0 26 23" fill="none" xmlns="http://www.w3.org/2000/svg">
<path d="M12.5614 0.479083C13.4614 0.369083 14.2814 0.739083 14.8114 1.44908L25.0714 18.9591C25.7614 20.5091 24.7914 22.1691 23.1314 22.3491H2.63142C0.981417 22.1991 -0.0385836 20.4191 0.711416 18.9291L11.0514 1.33908C11.4514 0.879083 11.9414 0.549083 12.5614 0.479083Z" stroke="#2E6DF1" stroke-width="0.92" stroke-miterlimit="10"/>
<path d="M12.6613 5.78912C13.2513 5.70912 13.8213 5.95912 14.1413 6.44912C14.4613 6.93912 14.3913 7.41912 14.3813 7.96912C14.3413 9.50912 14.1613 11.1191 14.0713 12.6591C14.0213 13.3991 14.0213 14.1291 13.9613 14.8691C13.9413 14.9391 13.9013 14.9391 13.8413 14.9491C13.6313 14.9891 12.1413 14.9891 11.9313 14.9491C11.9013 14.9491 11.8713 14.9491 11.8513 14.9291L11.8013 14.8191C11.7013 12.6291 11.5213 10.4491 11.4413 8.26912C11.4213 7.65912 11.2513 7.11912 11.5713 6.53912C11.7913 6.13912 12.2113 5.83912 12.6713 5.77912L12.6613 5.78912Z" fill="#2E6DF1"/>
<path d="M12.8815 19.7888C13.7707 19.7888 14.4915 19.068 14.4915 18.1788C14.4915 17.2897 13.7707 16.5688 12.8815 16.5688C11.9923 16.5688 11.2715 17.2897 11.2715 18.1788C11.2715 19.068 11.9923 19.7888 12.8815 19.7888Z" fill="#2E6DF1"/>
</svg>
