<svg width="181" height="23" viewBox="0 0 181 23" fill="none" xmlns="http://www.w3.org/2000/svg">
<path d="M0.217482 15.4116C0.0577803 15.1902 -0.0131984 14.911 0.00201131 14.5689C0.019756 14.2218 0.225087 13.925 0.62054 13.6735C0.874035 13.5201 1.1402 13.4572 1.42412 13.4798C1.71057 13.4999 1.98434 13.6458 2.25305 13.9099C2.70934 14.3652 3.19098 14.7174 3.69544 14.9689C4.19736 15.2179 4.82856 15.3412 5.58651 15.3412C5.82226 15.3286 6.08083 15.2934 6.36221 15.2355C6.64866 15.1802 6.89455 15.0544 7.10748 14.8582C7.32042 14.662 7.42942 14.3627 7.42942 13.9577C7.42942 13.6156 7.31028 13.344 7.07453 13.1402C6.83878 12.934 6.52698 12.7604 6.13913 12.6221C5.75382 12.4837 5.32541 12.3504 4.85137 12.2247C4.36466 12.0863 3.86528 11.9304 3.35068 11.7593C2.83862 11.5858 2.37219 11.3619 1.94632 11.0877C1.52045 10.8161 1.17316 10.4514 0.906989 9.99859C0.638284 9.54583 0.506467 8.97485 0.506467 8.28565C0.506467 7.50338 0.724473 6.83933 1.16555 6.29351C1.6041 5.74517 2.17447 5.32259 2.87665 5.02578C3.58136 4.72897 4.31903 4.58057 5.08966 4.58057C5.57891 4.58057 6.09097 4.64093 6.62584 4.75916C7.16072 4.87486 7.67278 5.06099 8.15695 5.32007C8.6462 5.57915 9.05686 5.92124 9.3864 6.3413C9.56131 6.57522 9.66525 6.85694 9.6982 7.18393C9.73116 7.51344 9.57906 7.81025 9.24952 8.07436C9.0087 8.26301 8.73239 8.34602 8.41552 8.32087C8.10118 8.29823 7.84262 8.19007 7.63982 8.00142C7.37112 7.65933 7.01369 7.38768 6.56247 7.18393C6.11378 6.98271 5.60172 6.87958 5.02122 6.87958C4.7804 6.87958 4.52437 6.90725 4.25059 6.96259C3.97682 7.01541 3.73346 7.13363 3.52813 7.31473C3.3228 7.49332 3.2214 7.77755 3.2214 8.16994C3.2214 8.52964 3.33801 8.81639 3.57629 9.03019C3.81458 9.23896 4.13652 9.41252 4.53704 9.54332C4.93756 9.67663 5.3685 9.80491 5.8248 9.92565C6.2963 10.0514 6.7754 10.2023 7.26211 10.3759C7.75136 10.5469 8.20004 10.7733 8.60817 11.0575C9.02137 11.3367 9.35091 11.7015 9.60187 12.1467C9.85537 12.5919 9.98212 13.1578 9.98212 13.8445C9.98212 14.6419 9.74637 15.321 9.27487 15.882C8.80336 16.4454 8.21019 16.8705 7.5004 17.1597C6.79315 17.449 6.06815 17.5949 5.33048 17.5949C4.40015 17.5949 3.47236 17.4339 2.54203 17.1119C1.61171 16.79 0.838545 16.224 0.222552 15.4141L0.217482 15.4116Z" fill="#315062"/>
<path d="M16.8115 17.592C15.4706 17.592 14.3045 17.3153 13.3209 16.7595C12.3374 16.2036 11.5845 15.449 11.0547 14.4957C10.5249 13.5424 10.2612 12.4633 10.2612 11.2559C10.2612 9.85236 10.5477 8.65506 11.1231 7.66151C11.7011 6.66544 12.454 5.90329 13.3843 5.37256C14.3146 4.84182 15.2982 4.5752 16.3375 4.5752C17.1411 4.5752 17.9016 4.74121 18.619 5.0682C19.3364 5.39771 19.9701 5.84795 20.5202 6.42145C21.0728 6.99243 21.5088 7.65145 21.8308 8.40353C22.1552 9.15058 22.3175 9.94794 22.3175 10.7931C22.3023 11.1679 22.1527 11.4722 21.8688 11.7112C21.5874 11.9451 21.2553 12.0633 20.8751 12.0633H11.8506L11.1434 9.71653H19.8155L19.2933 10.1894V9.55555C19.2654 9.10279 19.1057 8.69531 18.8116 8.33562C18.5176 7.97592 18.1576 7.69169 17.7241 7.4804C17.2907 7.26912 16.8293 7.16096 16.34 7.16096C15.8508 7.16096 15.4275 7.22384 15.0143 7.34961C14.6061 7.47537 14.2512 7.68666 13.9521 7.98347C13.653 8.28028 13.4172 8.68022 13.2449 9.17825C13.0725 9.6788 12.9863 10.3127 12.9863 11.0798C12.9863 11.9225 13.1612 12.6368 13.5136 13.2229C13.8685 13.809 14.3273 14.2542 14.8875 14.5585C15.4477 14.8629 16.0409 15.0138 16.6721 15.0138C17.2526 15.0138 17.714 14.9685 18.0613 14.878C18.4111 14.7824 18.6899 14.6717 18.9003 14.5384C19.1133 14.4051 19.3085 14.2919 19.4808 14.1989C19.7673 14.0605 20.0335 13.9901 20.2844 13.9901C20.6343 13.9901 20.9207 14.1083 21.1514 14.3422C21.3795 14.5762 21.4936 14.8503 21.4936 15.1597C21.4936 15.5823 21.2705 15.9671 20.8269 16.3117C20.4188 16.6538 19.8408 16.9557 19.1006 17.2122C18.3604 17.4713 17.5974 17.5996 16.8141 17.5996L16.8115 17.592Z" fill="#315062"/>
<path d="M28.4338 4.57527C29.0954 4.57527 29.7038 4.6784 30.2564 4.87962C30.809 5.08337 31.2856 5.33993 31.6887 5.65435C32.0892 5.96625 32.4035 6.28066 32.6342 6.60263C32.8624 6.92459 32.9764 7.19373 32.9764 7.41508L32.3579 7.71943V6.00649C32.3579 5.60152 32.4922 5.26195 32.7584 4.9903C33.0246 4.71613 33.3668 4.57527 33.7775 4.57527C34.1881 4.57527 34.5227 4.70858 34.7915 4.97269C35.0576 5.23932 35.192 5.58392 35.192 6.00398V16.4376C35.192 17.8009 34.8954 18.8925 34.3047 19.7125C33.7166 20.5325 32.9409 21.1287 31.9802 21.4934C31.0194 21.8581 29.9852 22.0442 28.8799 22.0442C28.5656 22.0442 28.1575 22.004 27.6505 21.9235C27.146 21.8455 26.6644 21.7525 26.2081 21.6468C25.7543 21.5387 25.4071 21.4381 25.1738 21.3425C24.7023 21.1387 24.3728 20.8847 24.1903 20.5778C24.0103 20.2735 23.9748 19.9515 24.0838 19.6094C24.2232 19.1541 24.4514 18.8447 24.7657 18.6812C25.0826 18.5152 25.4147 18.4976 25.7645 18.6234C25.9191 18.6687 26.1777 18.7617 26.5402 18.9001C26.9027 19.0435 27.3007 19.1717 27.7341 19.2874C28.1676 19.4057 28.5479 19.466 28.8799 19.466C30.0638 19.466 30.9358 19.2296 31.5036 18.7592C32.0689 18.2914 32.3528 17.6424 32.3528 16.8149V14.7775L32.6393 14.9862C32.6393 15.19 32.5303 15.4365 32.3173 15.7257C32.1069 16.0175 31.8154 16.3017 31.4453 16.586C31.0752 16.8652 30.6367 17.1041 30.1297 17.2978C29.6252 17.494 29.0903 17.5921 28.525 17.5921C27.4071 17.5921 26.3982 17.3154 25.4983 16.7595C24.6009 16.2036 23.8912 15.439 23.369 14.463C22.8518 13.4846 22.5933 12.3627 22.5933 11.0925C22.5933 9.82225 22.8518 8.68281 23.369 7.70686C23.8886 6.72839 24.5908 5.96122 25.4755 5.40533C26.3577 4.84944 27.3412 4.57275 28.4287 4.57275L28.4338 4.57527ZM28.8825 7.15348C28.1752 7.15348 27.5542 7.32704 27.0193 7.67164C26.4844 8.01373 26.0661 8.48158 25.767 9.0752C25.4679 9.66882 25.3183 10.3429 25.3183 11.0925C25.3183 11.8421 25.4679 12.491 25.767 13.0897C26.0661 13.6833 26.4819 14.1511 27.0193 14.4932C27.5542 14.8353 28.1752 15.0064 28.8825 15.0064C29.5897 15.0064 30.2361 14.8353 30.7736 14.4932C31.3135 14.1511 31.7318 13.6833 32.0309 13.0897C32.33 12.491 32.4796 11.827 32.4796 11.0925C32.4796 10.358 32.33 9.66882 32.0309 9.0752C31.7318 8.48158 31.3135 8.01373 30.7736 7.67164C30.2387 7.32453 29.6075 7.15348 28.8825 7.15348Z" fill="#315062"/>
<path d="M45.9682 4.81201C46.3814 4.81201 46.7185 4.94784 46.9872 5.22201C47.2534 5.49367 47.3878 5.83575 47.3878 6.24324V12.197C47.3878 13.8571 46.9239 15.1727 45.9935 16.1436C45.0632 17.112 43.7248 17.5949 41.9756 17.5949C40.2265 17.5949 38.8881 17.112 37.9679 16.1436C37.0477 15.1727 36.5889 13.8571 36.5889 12.197V6.24324C36.5889 5.83324 36.7232 5.49367 36.9894 5.22201C37.2556 4.95036 37.5952 4.81201 38.0034 4.81201C38.4115 4.81201 38.7537 4.94784 39.0224 5.22201C39.2886 5.49367 39.4229 5.83575 39.4229 6.24324V12.197C39.4229 13.1503 39.6359 13.8571 40.0618 14.32C40.4876 14.7803 41.1239 15.0117 41.9731 15.0117C42.8223 15.0117 43.4839 14.7803 43.9123 14.32C44.3382 13.8597 44.5512 13.1503 44.5512 12.197V6.24324C44.5512 5.83324 44.6855 5.49367 44.9517 5.22201C45.2178 4.95036 45.5575 4.81201 45.9657 4.81201H45.9682Z" fill="#315062"/>
<path d="M50.3886 17.3557C49.9805 17.3557 49.6408 17.2198 49.3746 16.9457C49.1059 16.6715 48.9741 16.3294 48.9741 15.9244V6.24042C48.9741 5.83042 49.1085 5.49085 49.3746 5.21919C49.6408 4.94754 49.9805 4.8092 50.3886 4.8092C50.7968 4.8092 51.139 4.94502 51.4077 5.21919C51.6738 5.49085 51.8082 5.83294 51.8082 6.24042V8.44133L51.6434 6.87428C51.8158 6.49698 52.0389 6.16496 52.3152 5.87821C52.589 5.58895 52.8982 5.34748 53.2455 5.14876C53.5953 4.95257 53.9654 4.80919 54.3609 4.71361C54.7538 4.61803 55.1493 4.57275 55.5447 4.57275C56.0162 4.57275 56.4142 4.70607 56.7387 4.97018C57.0632 5.2368 57.2254 5.5487 57.2254 5.9084C57.2254 6.42655 57.091 6.79882 56.8249 7.0252C56.5562 7.2541 56.2646 7.36477 55.9478 7.36477C55.6487 7.36477 55.3749 7.31195 55.129 7.20128C54.8856 7.0906 54.6068 7.03275 54.295 7.03275C54.0085 7.03275 53.7196 7.10066 53.428 7.23146C53.139 7.36477 52.8703 7.57103 52.6245 7.85526C52.3811 8.13446 52.1834 8.48158 52.0338 8.89913C51.8868 9.31164 51.8107 9.79961 51.8107 10.3605V15.9194C51.8107 16.3244 51.6764 16.6665 51.4102 16.9406C51.1415 17.2123 50.8018 17.3506 50.3912 17.3506L50.3886 17.3557Z" fill="#315062"/>
<path d="M69.4823 11.0925C69.4823 12.3753 69.1933 13.5047 68.6204 14.4832C68.045 15.4591 67.2743 16.2213 66.3009 16.7671C65.3326 17.3154 64.2501 17.5896 63.0536 17.5896C61.8571 17.5896 60.7747 17.3154 59.8064 16.7671C58.838 16.2187 58.0649 15.4566 57.4869 14.4832C56.9114 13.5047 56.625 12.3753 56.625 11.0925C56.625 9.80967 56.9114 8.68281 57.4869 7.70686C58.0649 6.72839 58.8355 5.96122 59.8064 5.40533C60.7747 4.84944 61.8571 4.57275 63.0536 4.57275C64.2501 4.57275 65.3326 4.84944 66.3009 5.40533C67.2718 5.96122 68.045 6.72839 68.6204 7.70686C69.1933 8.68281 69.4823 9.80967 69.4823 11.0925ZM66.6482 11.0925C66.6482 10.2951 66.486 9.60342 66.1615 9.01734C65.8395 8.43127 65.4086 7.97348 64.8611 7.64397C64.3186 7.31698 63.7153 7.15097 63.0536 7.15097C62.392 7.15097 61.7887 7.31698 61.2411 7.64397C60.6987 7.97348 60.2652 8.43127 59.9407 9.01734C59.6188 9.60342 59.4591 10.2951 59.4591 11.0925C59.4591 11.8899 59.6188 12.5589 59.9407 13.1475C60.2652 13.7336 60.6961 14.1939 61.2411 14.5209C61.7862 14.8454 62.3895 15.0089 63.0536 15.0089C63.7178 15.0089 64.316 14.8454 64.8611 14.5209C65.4061 14.1939 65.8395 13.7336 66.1615 13.1475C66.486 12.5614 66.6482 11.8773 66.6482 11.0925Z" fill="#315062"/>
<path d="M69.7439 15.4116C69.5841 15.1902 69.5132 14.911 69.5284 14.5689C69.5461 14.2218 69.7515 13.925 70.1469 13.6735C70.4004 13.5201 70.6666 13.4572 70.9505 13.4798C71.2369 13.4999 71.5107 13.6458 71.7794 13.9099C72.2357 14.3652 72.7173 14.7174 73.2218 14.9689C73.7237 15.2179 74.3549 15.3412 75.1129 15.3412C75.3486 15.3286 75.6072 15.2934 75.8886 15.2355C76.175 15.1802 76.4209 15.0544 76.6338 14.8582C76.8468 14.662 76.9558 14.3627 76.9558 13.9577C76.9558 13.6156 76.8366 13.344 76.6009 13.1402C76.3651 12.934 76.0533 12.7604 75.6655 12.6221C75.2802 12.4837 74.8518 12.3504 74.3777 12.2247C73.891 12.0863 73.3916 11.9304 72.877 11.7593C72.365 11.5858 71.8986 11.3619 71.4727 11.0877C71.0468 10.8161 70.6995 10.4514 70.4334 9.99859C70.1647 9.54583 70.0328 8.97485 70.0328 8.28565C70.0328 7.50338 70.2508 6.83933 70.6919 6.29351C71.1305 5.74517 71.7008 5.32259 72.403 5.02578C73.1077 4.72897 73.8454 4.58057 74.616 4.58057C75.1053 4.58057 75.6173 4.64093 76.1522 4.75916C76.6871 4.87486 77.1991 5.06099 77.6833 5.32007C78.1726 5.57915 78.5832 5.92124 78.9128 6.3413C79.0877 6.57522 79.1916 6.85694 79.2246 7.18393C79.2575 7.51344 79.1054 7.81025 78.7759 8.07436C78.5351 8.26301 78.2588 8.34602 77.9419 8.32087C77.6276 8.29823 77.369 8.19007 77.1662 8.00142C76.8975 7.65933 76.5401 7.38768 76.0888 7.18393C75.6401 6.98271 75.1281 6.87958 74.5476 6.87958C74.3068 6.87958 74.0507 6.90725 73.777 6.96259C73.5032 7.01541 73.2598 7.13363 73.0545 7.31473C72.8492 7.49332 72.7478 7.77755 72.7478 8.16994C72.7478 8.52964 72.8644 8.81639 73.1027 9.03019C73.3409 9.23896 73.6629 9.41252 74.0634 9.54332C74.4639 9.67663 74.8949 9.80491 75.3512 9.92565C75.8227 10.0514 76.3018 10.2023 76.7885 10.3759C77.2777 10.5469 77.7264 10.7733 78.1345 11.0575C78.5477 11.3367 78.8773 11.7015 79.1282 12.1467C79.3817 12.5919 79.5085 13.1578 79.5085 13.8445C79.5085 14.6419 79.2727 15.321 78.8012 15.882C78.3297 16.4454 77.7365 16.8705 77.0268 17.1597C76.3195 17.449 75.5945 17.5949 74.8568 17.5949C73.9265 17.5949 72.9987 17.4339 72.0684 17.1119C71.1381 16.79 70.3649 16.224 69.7489 15.4141L69.7439 15.4116Z" fill="#315062"/>
<path d="M90.9206 4.57527C91.3287 4.57527 91.6659 4.70858 91.9346 4.97269C92.2007 5.23932 92.3351 5.58392 92.3351 6.00398V15.9244C92.3351 16.3294 92.2007 16.6715 91.9346 16.9457C91.6659 17.2173 91.3287 17.3557 90.9206 17.3557C90.5125 17.3557 90.1728 17.2198 89.9015 16.9457C89.6328 16.6715 89.501 16.3294 89.501 15.9244V14.7775L90.0232 14.9862C90.0232 15.19 89.9117 15.4365 89.6911 15.7257C89.4731 16.0175 89.174 16.3017 88.7938 16.586C88.4161 16.8652 87.9724 17.1041 87.4578 17.2978C86.9458 17.494 86.3932 17.5921 85.7949 17.5921C84.7074 17.5921 83.7213 17.3154 82.8366 16.7595C81.957 16.2036 81.2599 15.439 80.7453 14.463C80.2332 13.4846 79.9797 12.3627 79.9797 11.0925C79.9797 9.82225 80.2358 8.68281 80.7453 7.70686C81.2599 6.72839 81.9494 5.96122 82.8163 5.40533C83.6833 4.84944 84.644 4.57275 85.7011 4.57275C86.3779 4.57275 86.9965 4.67588 87.5643 4.87711C88.1347 5.08085 88.6265 5.33741 89.0422 5.65183C89.4605 5.96373 89.7849 6.27815 90.0131 6.60011C90.2412 6.92207 90.3553 7.19121 90.3553 7.41256L89.4985 7.71692V6.00398C89.4985 5.59901 89.6328 5.25944 89.899 4.98778C90.1702 4.71361 90.5099 4.57275 90.9181 4.57275L90.9206 4.57527ZM86.1473 15.0089C86.8393 15.0089 87.4477 14.8378 87.9648 14.4957C88.4845 14.1537 88.8926 13.6858 89.1841 13.0922C89.4757 12.4935 89.6227 11.8295 89.6227 11.095C89.6227 10.3605 89.4757 9.67133 89.1841 9.07771C88.8901 8.4841 88.4845 8.01624 87.9648 7.67416C87.4477 7.32704 86.8418 7.156 86.1473 7.156C85.4527 7.156 84.8722 7.32956 84.3525 7.67416C83.8303 8.01624 83.4247 8.4841 83.1332 9.07771C82.8442 9.67133 82.6997 10.3454 82.6997 11.095C82.6997 11.8446 82.8442 12.4935 83.1332 13.0922C83.4247 13.6858 83.8329 14.1537 84.3525 14.4957C84.8722 14.8378 85.473 15.0089 86.1473 15.0089Z" fill="#46B5A3"/>
<path d="M96.9968 15.9246C96.9968 16.3295 96.8573 16.6716 96.5785 16.9458C96.3047 17.2174 95.9625 17.3558 95.5544 17.3558C95.1463 17.3558 94.8294 17.22 94.5607 16.9458C94.292 16.6716 94.1602 16.3295 94.1602 15.9246V1.43122C94.1602 1.02626 94.297 0.686686 94.5733 0.41503C94.8471 0.140859 95.1919 0 95.6025 0C96.0132 0 96.3453 0.138343 96.6064 0.41503C96.8675 0.686686 96.9968 1.02626 96.9968 1.43122V15.9271V15.9246Z" fill="#46B5A3"/>
<path d="M108.928 0C109.337 0 109.674 0.135828 109.942 0.402453C110.209 0.669078 110.343 1.01116 110.343 1.42871V15.9246C110.343 16.3295 110.209 16.6716 109.942 16.9458C109.674 17.2174 109.337 17.3558 108.928 17.3558C108.52 17.3558 108.181 17.22 107.909 16.9458C107.641 16.6716 107.509 16.3295 107.509 15.9246V14.7776L108.031 14.9863C108.031 15.1901 107.919 15.4366 107.699 15.7259C107.481 16.0176 107.182 16.3019 106.802 16.5861C106.424 16.8653 105.98 17.1043 105.466 17.2979C104.954 17.4941 104.401 17.5922 103.803 17.5922C102.715 17.5922 101.729 17.3155 100.844 16.7597C99.9648 16.2038 99.2677 15.4391 98.7531 14.4632C98.241 13.4847 97.9875 12.3629 97.9875 11.0926C97.9875 9.82237 98.2436 8.68293 98.7531 7.70698C99.2677 6.72851 99.9572 5.96134 100.824 5.40545C101.691 4.84956 102.652 4.57287 103.709 4.57287C104.386 4.57287 105.004 4.676 105.572 4.87723C106.142 5.08097 106.634 5.33753 107.05 5.65195C107.468 5.96385 107.793 6.27827 108.021 6.60023C108.249 6.92219 108.363 7.19133 108.363 7.41268L107.506 7.71704V1.43122C107.506 1.02626 107.641 0.686686 107.907 0.41503C108.178 0.140859 108.518 0 108.926 0L108.928 0ZM104.155 15.009C104.847 15.009 105.456 14.8379 105.973 14.4959C106.492 14.1538 106.9 13.6859 107.192 13.0923C107.483 12.4937 107.631 11.8296 107.631 11.0951C107.631 10.3607 107.483 9.67145 107.192 9.07783C106.898 8.48421 106.492 8.01636 105.973 7.67428C105.456 7.32716 104.85 7.15612 104.155 7.15612C103.461 7.15612 102.88 7.32968 102.36 7.67428C101.838 8.01636 101.433 8.48421 101.141 9.07783C100.852 9.67145 100.708 10.3456 100.708 11.0951C100.708 11.8447 100.852 12.4937 101.141 13.0923C101.433 13.6859 101.841 14.1538 102.36 14.4959C102.88 14.8379 103.481 15.009 104.155 15.009Z" fill="#46B5A3"/>
<path d="M117.888 17.592C116.547 17.592 115.381 17.3153 114.397 16.7595C113.414 16.2036 112.661 15.449 112.131 14.4957C111.601 13.5424 111.337 12.4633 111.337 11.2559C111.337 9.85236 111.624 8.65506 112.199 7.66151C112.777 6.66544 113.53 5.90329 114.46 5.37256C115.391 4.84182 116.374 4.5752 117.414 4.5752C118.217 4.5752 118.978 4.74121 119.695 5.0682C120.413 5.39771 121.046 5.84795 121.596 6.42145C122.149 6.99243 122.585 7.65145 122.907 8.40353C123.231 9.15058 123.394 9.94794 123.394 10.7931C123.378 11.1679 123.229 11.4722 122.945 11.7112C122.664 11.9451 122.331 12.0633 121.951 12.0633H112.927L112.22 9.71653H120.892L120.369 10.1894V9.55555C120.342 9.10279 120.182 8.69531 119.888 8.33562C119.594 7.97592 119.234 7.69169 118.8 7.4804C118.367 7.26912 117.905 7.16096 117.416 7.16096C116.927 7.16096 116.504 7.22384 116.09 7.34961C115.682 7.47537 115.327 7.68666 115.028 7.98347C114.729 8.28028 114.493 8.68022 114.321 9.17825C114.149 9.6788 114.062 10.3127 114.062 11.0798C114.062 11.9225 114.237 12.6368 114.59 13.2229C114.945 13.809 115.403 14.2542 115.964 14.5585C116.524 14.8629 117.117 15.0138 117.748 15.0138C118.329 15.0138 118.79 14.9685 119.137 14.878C119.487 14.7824 119.766 14.6717 119.977 14.5384C120.189 14.4051 120.385 14.2919 120.557 14.1989C120.843 14.0605 121.11 13.9901 121.361 13.9901C121.71 13.9901 121.997 14.1083 122.228 14.3422C122.456 14.5762 122.57 14.8503 122.57 15.1597C122.57 15.5823 122.347 15.9671 121.903 16.3117C121.495 16.6538 120.917 16.9557 120.177 17.2122C119.437 17.4713 118.674 17.5996 117.89 17.5996L117.888 17.592Z" fill="#46B5A3"/>
<path d="M125.799 17.3557C125.391 17.3557 125.051 17.2198 124.785 16.9457C124.516 16.6715 124.384 16.3294 124.384 15.9244V6.24042C124.384 5.83042 124.519 5.49085 124.785 5.21919C125.051 4.94754 125.391 4.8092 125.799 4.8092C126.207 4.8092 126.549 4.94502 126.818 5.21919C127.084 5.49085 127.218 5.83294 127.218 6.24042V8.44133L127.054 6.87428C127.226 6.49698 127.449 6.16496 127.725 5.87821C127.999 5.58895 128.308 5.34748 128.656 5.14876C129.005 4.95257 129.376 4.80919 129.771 4.71361C130.164 4.61803 130.559 4.57275 130.955 4.57275C131.426 4.57275 131.824 4.70607 132.149 4.97018C132.473 5.2368 132.636 5.5487 132.636 5.9084C132.636 6.42655 132.501 6.79882 132.235 7.0252C131.966 7.2541 131.675 7.36477 131.358 7.36477C131.059 7.36477 130.785 7.31195 130.539 7.20128C130.296 7.0906 130.017 7.03275 129.705 7.03275C129.419 7.03275 129.13 7.10066 128.838 7.23146C128.549 7.36477 128.28 7.57103 128.035 7.85526C127.791 8.13446 127.594 8.48158 127.444 8.89913C127.297 9.31164 127.221 9.79961 127.221 10.3605V15.9194C127.221 16.3244 127.087 16.6665 126.82 16.9406C126.552 17.2123 126.212 17.3506 125.801 17.3506L125.799 17.3557Z" fill="#46B5A3"/>
<path d="M138.59 17.592C137.249 17.592 136.083 17.3153 135.099 16.7595C134.116 16.2036 133.363 15.449 132.833 14.4957C132.303 13.5424 132.04 12.4633 132.04 11.2559C132.04 9.85236 132.326 8.65506 132.902 7.66151C133.48 6.66544 134.233 5.90329 135.163 5.37256C136.093 4.84182 137.077 4.5752 138.116 4.5752C138.92 4.5752 139.68 4.74121 140.398 5.0682C141.115 5.39771 141.749 5.84795 142.299 6.42145C142.851 6.99243 143.287 7.65145 143.609 8.40353C143.934 9.15058 144.096 9.94794 144.096 10.7931C144.081 11.1679 143.931 11.4722 143.647 11.7112C143.366 11.9451 143.034 12.0633 142.654 12.0633H133.629L132.922 9.71653H141.594L141.072 10.1894V9.55555C141.044 9.10279 140.884 8.69531 140.59 8.33562C140.296 7.97592 139.936 7.69169 139.503 7.4804C139.069 7.26912 138.608 7.16096 138.119 7.16096C137.629 7.16096 137.206 7.22384 136.793 7.34961C136.385 7.47537 136.03 7.68666 135.731 7.98347C135.432 8.28028 135.196 8.68022 135.023 9.17825C134.851 9.6788 134.765 10.3127 134.765 11.0798C134.765 11.9225 134.94 12.6368 135.292 13.2229C135.647 13.809 136.106 14.2542 136.666 14.5585C137.226 14.8629 137.819 15.0138 138.451 15.0138C139.031 15.0138 139.493 14.9685 139.84 14.878C140.19 14.7824 140.469 14.6717 140.679 14.5384C140.892 14.4051 141.087 14.2919 141.259 14.1989C141.546 14.0605 141.812 13.9901 142.063 13.9901C142.413 13.9901 142.699 14.1083 142.93 14.3422C143.158 14.5762 143.272 14.8503 143.272 15.1597C143.272 15.5823 143.049 15.9671 142.605 16.3117C142.197 16.6538 141.619 16.9557 140.879 17.2122C140.139 17.4713 139.376 17.5996 138.593 17.5996L138.59 17.592Z" fill="#46B5A3"/>
<path d="M150.713 4.5752C151.61 4.5752 152.394 4.67078 153.063 4.85943C153.732 5.04808 154.252 5.30967 154.622 5.64673C154.995 5.98127 155.182 6.38372 155.182 6.85157C155.182 7.16599 155.086 7.46028 154.896 7.73194C154.706 8.00359 154.429 8.14194 154.067 8.14194C153.816 8.14194 153.608 8.10672 153.443 8.03629C153.276 7.96586 153.131 7.87783 153.005 7.76967C152.878 7.65899 152.728 7.55838 152.556 7.46531C152.396 7.36973 152.155 7.29678 151.833 7.23893C151.512 7.18359 151.273 7.15593 151.116 7.15593C150.312 7.15593 149.633 7.32948 149.073 7.67408C148.513 8.01617 148.082 8.48151 147.785 9.06758C147.486 9.65365 147.336 10.3303 147.336 11.0949C147.336 11.8596 147.489 12.5161 147.795 13.1022C148.105 13.6882 148.53 14.1536 149.073 14.4957C149.615 14.8377 150.242 15.0088 150.954 15.0088C151.347 15.0088 151.686 14.9862 151.968 14.9409C152.254 14.8956 152.487 14.8252 152.675 14.7321C152.898 14.6063 153.093 14.473 153.266 14.3347C153.438 14.1913 153.699 14.1209 154.046 14.1209C154.455 14.1209 154.769 14.2517 154.992 14.5082C155.215 14.7673 155.324 15.0843 155.324 15.4616C155.324 15.8389 155.101 16.2036 154.657 16.5255C154.216 16.8475 153.638 17.1066 152.921 17.3003C152.206 17.4965 151.43 17.5946 150.596 17.5946C149.349 17.5946 148.269 17.3103 147.354 16.7393C146.442 16.1658 145.737 15.3861 145.243 14.4026C144.748 13.4191 144.497 12.3149 144.497 11.0949C144.497 9.81463 144.761 8.68525 145.291 7.7093C145.818 6.73083 146.551 5.96366 147.489 5.40777C148.424 4.85188 149.501 4.5752 150.716 4.5752H150.713Z" fill="#46B5A3"/>
<path d="M162.525 4.57539C163.661 4.57539 164.525 4.81938 165.114 5.30483C165.704 5.79029 166.11 6.43422 166.328 7.23913C166.551 8.04403 166.66 8.93697 166.66 9.92298V15.9296C166.66 16.3346 166.525 16.6766 166.259 16.9508C165.991 17.2225 165.653 17.3608 165.245 17.3608C164.837 17.3608 164.498 17.225 164.226 16.9508C163.958 16.6766 163.826 16.3346 163.826 15.9296V9.92298C163.826 9.40986 163.762 8.94703 163.636 8.53452C163.511 8.11949 163.283 7.78495 162.954 7.53342C162.622 7.28189 162.148 7.15612 161.534 7.15612C160.921 7.15612 160.421 7.28189 159.998 7.53342C159.575 7.78495 159.255 8.11949 159.042 8.53452C158.832 8.94703 158.725 9.40986 158.725 9.92298V15.9296C158.725 16.3346 158.591 16.6766 158.325 16.9508C158.056 17.2225 157.717 17.3608 157.306 17.3608C156.895 17.3608 156.558 17.225 156.292 16.9508C156.023 16.6766 155.891 16.3346 155.891 15.9296V1.43122C155.891 1.02626 156.026 0.686686 156.292 0.41503C156.558 0.140859 156.898 0 157.306 0C157.714 0 158.056 0.138343 158.325 0.41503C158.591 0.686686 158.725 1.02626 158.725 1.43122V7.24919L158.371 7.18127C158.51 6.91716 158.705 6.63041 158.956 6.32606C159.21 6.01919 159.516 5.73244 159.881 5.46582C160.244 5.20171 160.644 4.98539 161.085 4.82189C161.529 4.65839 162.011 4.57539 162.528 4.57539H162.525Z" fill="#46B5A3"/>
<path d="M180.508 11.0925C180.508 12.3753 180.219 13.5047 179.646 14.4832C179.07 15.4591 178.3 16.2213 177.326 16.7671C176.358 17.3154 175.276 17.5896 174.079 17.5896C172.883 17.5896 171.8 17.3154 170.832 16.7671C169.863 16.2187 169.09 15.4566 168.512 14.4832C167.937 13.5047 167.65 12.3753 167.65 11.0925C167.65 9.80967 167.937 8.68281 168.512 7.70686C169.09 6.72839 169.861 5.96122 170.832 5.40533C171.8 4.84944 172.883 4.57275 174.079 4.57275C175.276 4.57275 176.358 4.84944 177.326 5.40533C178.297 5.96122 179.07 6.72839 179.646 7.70686C180.219 8.68281 180.508 9.80967 180.508 11.0925ZM177.674 11.0925C177.674 10.2951 177.511 9.60342 177.187 9.01734C176.865 8.43127 176.434 7.97348 175.886 7.64397C175.344 7.31698 174.741 7.15097 174.079 7.15097C173.417 7.15097 172.814 7.31698 172.267 7.64397C171.724 7.97348 171.291 8.43127 170.966 9.01734C170.644 9.60342 170.484 10.2951 170.484 11.0925C170.484 11.8899 170.644 12.5589 170.966 13.1475C171.291 13.7336 171.722 14.1939 172.267 14.5209C172.812 14.8454 173.415 15.0089 174.079 15.0089C174.743 15.0089 175.341 14.8454 175.886 14.5209C176.431 14.1939 176.865 13.7336 177.187 13.1475C177.511 12.5614 177.674 11.8773 177.674 11.0925Z" fill="#46B5A3"/>
</svg>
