<svg width="51" height="54" viewBox="0 0 51 54" fill="none" xmlns="http://www.w3.org/2000/svg">
<g clip-path="url(#clip0_278_492)">
<path d="M27.5206 17.625C27.3985 17.5032 27.2299 17.4336 27.0555 17.4336C21.77 17.4336 17.4672 21.7268 17.4672 27.0004C17.4672 29.6053 18.4847 32.0362 20.3338 33.8347C22.1421 35.5983 24.5319 36.5672 27.0555 36.5672C27.4218 36.5672 27.7125 36.2713 27.7125 35.9174V31.3052V27.6618V18.0892C27.7125 17.9151 27.6428 17.7469 27.5206 17.625Z" fill="#2B5264"/>
<path d="M27.0554 39.8568C19.95 39.8568 14.1644 34.0901 14.1644 26.9947C14.1644 19.8994 19.9442 14.1326 27.0554 14.1326C27.4218 14.1326 27.7125 13.8368 27.7125 13.4771V0.655578C27.7125 0.290079 27.4159 0 27.0554 0H24.8517C23.7178 0 22.7526 0.765808 22.5026 1.86811L21.6129 5.72616C21.5199 6.12647 21.2524 6.41074 20.8629 6.52677C19.5081 6.93288 18.1823 7.48403 16.9322 8.15122C16.5717 8.34267 16.1821 8.33106 15.8332 8.11641L12.4724 6.01043C11.513 5.41287 10.2861 5.55211 9.48365 6.34692L6.36701 9.45657C5.56459 10.2572 5.42504 11.4813 6.02976 12.4386L8.13466 15.7919C8.3498 16.14 8.36724 16.5287 8.16954 16.8884C7.49505 18.1357 6.94847 19.4585 6.54145 20.8103C6.42516 21.199 6.14024 21.4658 5.73903 21.5587L1.87231 22.4463C0.76753 22.7016 0 23.6646 0 24.7901V29.1877C0 30.319 0.76753 31.2821 1.87231 31.5374L5.73903 32.425C6.14024 32.5178 6.42516 32.7847 6.54145 33.1734C6.94847 34.5252 7.50086 35.8479 8.16954 37.0953C8.36143 37.455 8.3498 37.8437 8.13466 38.1918L6.02395 41.5451C5.42504 42.5024 5.56459 43.7265 6.3612 44.5271L9.47783 47.6367C10.2803 48.4374 11.5071 48.5766 12.4665 47.9732L15.8274 45.8731C16.1763 45.6584 16.5659 45.641 16.9264 45.8383C18.1765 46.5112 19.5022 47.0566 20.857 47.4627C21.2466 47.5787 21.5141 47.863 21.6071 48.2633L22.4968 52.1156C22.7526 53.2179 23.7178 53.9837 24.8459 53.9837H27.0496C27.4159 53.9837 27.7067 53.6878 27.7067 53.3281V47.5787H27.7125V40.5066C27.7125 40.1411 27.4159 39.851 27.0554 39.851V39.8568Z" fill="#2B5264"/>
<path d="M27.7067 47.5784H35.6029C35.9692 47.5784 36.26 47.2825 36.26 46.9228V41.7246C37.5217 41.4229 38.4695 40.2974 38.4695 38.9456C38.4753 37.3676 37.1903 36.0854 35.6087 36.0854C34.0272 36.0854 32.7421 37.3676 32.7421 38.9456C32.7421 40.2974 33.6841 41.4229 34.9517 41.7246V46.2614H27.7067V47.5784ZM34.062 38.9456C34.062 38.0928 34.754 37.4024 35.6087 37.4024C36.4635 37.4024 37.1554 38.0928 37.1554 38.9456C37.1554 39.7985 36.4635 40.4888 35.6087 40.4888C34.754 40.4888 34.062 39.7985 34.062 38.9456Z" fill="#41B6A6"/>
<path d="M27.7067 32.6163H39.0335L43.5108 37.0835V40.7849C42.249 41.0866 41.3012 42.2121 41.3012 43.5638C41.3012 45.1419 42.5863 46.424 44.1679 46.424C45.7494 46.424 47.0345 45.1419 47.0345 43.5638C47.0345 42.2121 46.0925 41.0866 44.8249 40.7849V36.8108C44.8249 36.6368 44.7551 36.4685 44.633 36.3467L39.7662 31.4908C39.6441 31.3689 39.4755 31.2993 39.301 31.2993H27.7067V32.6163ZM45.7204 43.5522C45.7204 44.4051 45.0284 45.0955 44.1737 45.0955C43.3189 45.0955 42.627 44.4051 42.627 43.5522C42.627 42.6994 43.3189 42.009 44.1737 42.009C45.0284 42.009 45.7204 42.6994 45.7204 43.5522Z" fill="#41B6A6"/>
<path d="M27.7067 22.6897H39.3068C39.4813 22.6897 39.6499 22.62 39.772 22.4982L44.6388 17.6423C44.7609 17.5204 44.8307 17.3522 44.8307 17.1782V13.2041C46.0925 12.9024 47.0403 11.7769 47.0403 10.4251C47.0403 8.84709 45.7553 7.56494 44.1737 7.56494C42.5921 7.56494 41.3071 8.84709 41.3071 10.4251C41.3071 11.7769 42.249 12.9024 43.5166 13.2041V16.9055L39.0394 21.3727H27.7067V22.6897ZM27.7067 27.6558H45.1563C45.4587 28.9147 46.5867 29.8604 47.9415 29.8604C49.5231 29.8604 50.8082 28.5783 50.8082 27.0002C50.8082 25.4106 49.5173 24.1284 47.9357 24.1284C46.5809 24.1284 45.4529 25.0683 45.1505 26.333H27.7067V27.6558ZM42.627 10.4251C42.627 9.57229 43.3189 8.8819 44.1737 8.8819C45.0284 8.8819 45.7204 9.57229 45.7204 10.4251C45.7204 11.2779 45.0284 11.9683 44.1737 11.9683C43.3189 11.9683 42.627 11.2779 42.627 10.4251ZM47.9415 28.5318C47.0868 28.5318 46.3949 27.8414 46.3949 26.9886C46.3949 26.1358 47.0868 25.4454 47.9415 25.4454C48.7963 25.4454 49.4882 26.1358 49.4882 26.9886C49.4882 27.8414 48.7963 28.5318 47.9415 28.5318Z" fill="#41B6A6"/>
<path d="M27.7067 7.72174H34.9517V12.2586C33.6899 12.5603 32.7421 13.6858 32.7421 15.0375C32.7421 16.6156 34.0272 17.8977 35.6087 17.8977C37.1903 17.8977 38.4753 16.6156 38.4753 15.0375C38.4753 13.6858 37.5334 12.5603 36.2658 12.2586V7.06036C36.2658 6.69486 35.9692 6.40479 35.6087 6.40479H27.7067V7.72174ZM37.1554 15.0317C37.1554 15.8846 36.4635 16.5749 35.6087 16.5749C34.754 16.5749 34.062 15.8846 34.062 15.0317C34.062 14.1789 34.754 13.4885 35.6087 13.4885C36.4635 13.4885 37.1554 14.1847 37.1554 15.0317Z" fill="#41B6A6"/>
</g>
<defs>
<clipPath id="clip0_278_492">
<rect width="50.8082" height="53.9837" fill="white"/>
</clipPath>
</defs>
</svg>
