<svg width="49" height="49" viewBox="0 0 49 49" fill="none" xmlns="http://www.w3.org/2000/svg">
<g clip-path="url(#clip0_719_260)">
<path d="M7.11428 12.7489C7.22315 12.4881 7.21368 11.8908 7.49295 11.8955C7.87635 11.8955 12.2263 16.7552 12.9695 17.272C13.8026 16.5561 14.541 16.6509 15.5397 16.8927L15.9184 15.6221L9.79337 9.4775C10.1294 7.91291 11.5021 6.44789 13.0073 5.91214C13.3907 5.77464 14.7256 5.59922 14.8676 5.46173C15.1658 5.17251 14.967 4.74581 14.6072 4.58461C13.7221 4.19109 12.1269 4.12946 11.1803 4.26695C9.1875 4.55616 7.76275 5.70827 6.06347 6.59961C5.61379 6.83666 4.95585 7.49569 4.61978 7.89395C4.45412 8.08833 4.22691 8.6146 4.10858 8.69995C3.91924 8.8327 3.68731 8.75684 3.48377 8.8327C2.15842 9.33526 1.10288 10.9473 0 11.8102V11.905L4.19378 16.0582C5.02685 15.0768 6.62201 13.9437 7.11428 12.7584V12.7489Z" fill="#41B6A6"/>
<path d="M27.9412 26.2471C25.9295 23.8007 22.867 21.2072 20.5855 18.8888C20.1311 18.4289 19.5868 17.6324 19.0803 17.2815C18.7111 17.0208 18.659 17.6656 18.6543 17.9453C19.8613 18.0212 20.6755 19.0121 20.4246 20.2353C20.3772 20.4723 20.1406 20.6999 20.0885 20.937C20.0128 21.2926 20.0459 21.7003 19.9465 22.1175C19.7146 23.0421 19.3785 23.9476 19.1466 24.8722L21.2009 27.0104H28.4997C28.2157 26.9061 28.211 26.5837 27.9412 26.2518V26.2471Z" fill="#41B6A6"/>
<path d="M47.6841 27.0009V16.9022C46.5291 18.2439 45.147 19.3629 43.443 19.9223C43.4051 20.0977 43.727 19.9887 43.727 20.0171V27.0009H29.0251C28.7837 27.0483 28.6227 27.0436 28.5091 27.0009H8.67152V20.0171H11.308L12.1458 17.5375L7.96151 13.2278L6.55097 15.0199L4.71441 16.8595V27.0056H3.3938V41.8739C3.3938 45.2639 7.39351 49.0284 10.7873 49.0047H41.6111C44.8867 48.7534 47.6509 46.525 48.6544 43.4101L49.0047 41.9213V27.0056H47.6841V27.0009Z" fill="#2B5264"/>
<path d="M38.2078 19.9178C38.4634 19.7281 39.0929 19.9984 39.4385 20.0173C44.3044 20.3113 48.1384 16.4852 47.6698 11.5828C47.5846 10.6725 47.1586 9.91863 46.3113 10.7673L43.1873 14.7404L38.9651 13.887L37.2564 10.0656L40.5461 5.84123C41.1945 4.36198 38.3782 5.05893 37.7155 5.27229C33.3513 6.67567 31.368 11.8957 33.4129 15.9684L26.6772 23.9572C27.3778 25.005 28.7789 25.6735 29.025 27.0106H33.0815L38.2125 19.9225L38.2078 19.9178Z" fill="#41B6A6"/>
<path d="M13.1919 21.1029C13.6179 20.0172 15.071 20.2211 15.1657 21.3779L13.5706 27.0057H14.9858L16.4437 22.0038C16.9644 20.8849 18.356 21.2594 18.3797 22.4257L17.0543 27.0057H17.6176C18.0294 25.2704 18.8199 23.4546 19.1749 21.724C19.2696 21.2736 19.1749 20.5909 19.2364 20.3728C19.3074 20.1358 19.6766 20.0599 19.6956 19.5953C19.7571 18.282 17.6933 18.4763 17.6365 18.0876L21.3712 5.51872C21.8209 4.88815 22.4409 3.92095 22.6019 3.15762C22.6681 2.84944 22.9379 0.68747 22.8811 0.535752C22.4362 0.251282 21.783 0.146976 21.2528 0L19.989 2.71669C19.9322 3.54165 19.7618 4.35714 19.8139 5.17736L16.1077 17.6182C15.7195 17.8884 14.1196 16.651 13.5706 17.7178C13.3765 18.097 13.5422 18.4005 13.4475 18.7229C13.386 18.9362 12.799 19.306 12.8038 19.6806C12.0559 22.1128 11.4358 24.6162 10.5933 27.001H11.4879L13.1824 21.0982L13.1919 21.1029Z" fill="#41B6A6"/>
</g>
<defs>
<clipPath id="clip0_719_260">
<rect width="49" height="49" fill="white"/>
</clipPath>
</defs>
</svg>
