<svg width="12" height="21" viewBox="0 0 12 21" fill="none" xmlns="http://www.w3.org/2000/svg">
<path d="M2.46084 20.1508C2.1297 19.964 2.02782 19.7517 2.08725 19.3696L4.27782 11.4819H0.983478C0.983478 11.4819 0.72027 11.397 0.677817 11.363C0.397629 11.1847 0.338195 10.7602 0.55895 10.514C3.14008 7.18568 5.67027 3.81493 8.28536 0.520588C8.71838 0.274362 9.20235 0.520588 9.21933 1.03002L8.2514 7.05832H10.4674C10.4674 7.05832 10.7137 7.18568 10.7561 7.22814C10.9429 7.41493 10.9599 7.7121 10.8495 7.94134L3.18254 19.8451C3.08065 19.981 2.95329 20.0659 2.81744 20.1593H2.46933L2.46084 20.1508Z" stroke="#2E6DF1" stroke-width="0.849057" stroke-miterlimit="10"/>
</svg>
