<svg width="19" height="19" viewBox="0 0 19 19" fill="none" xmlns="http://www.w3.org/2000/svg">
<path d="M19 11.4456V12.4209C19 13.3892 18.6165 14.32 17.929 15.0053C17.2438 15.6906 16.3154 16.0765 15.345 16.0765H15.0223C14.8562 16.9021 14.4096 17.6435 13.7572 18.1767C13.1047 18.71 12.2886 19 11.4468 19H10.474C10.0694 19 9.74437 18.6726 9.74437 18.2703C9.74437 17.868 10.0718 17.5406 10.474 17.5406H11.4491C12.4546 17.5406 13.3316 16.8506 13.5748 15.8753C13.0182 15.5806 12.6698 15.003 12.6674 14.3738V9.50205C12.6721 8.56184 13.4321 7.80172 14.3722 7.79705H15.3473C15.4292 7.79237 15.511 7.79237 15.5905 7.79705V7.55381C15.5905 5.3787 14.4306 3.36732 12.5458 2.27743C10.6634 1.18988 8.34129 1.18988 6.45649 2.27743C4.57169 3.36498 3.41182 5.37637 3.41182 7.55381V7.82745C3.49366 7.82043 3.57551 7.82043 3.65502 7.82745H4.63015C5.55852 7.83213 6.31385 8.57587 6.33489 9.50438V14.3762C6.33022 15.3164 5.57022 16.0765 4.63015 16.0812H3.65502C2.68689 16.0812 1.75618 15.6976 1.07102 15.01C0.385846 14.3247 0 13.3962 0 12.4256V11.4503C0.00467692 10.7884 0.187077 10.1405 0.530831 9.57455C0.872246 9.00855 1.36332 8.54547 1.94794 8.23441V7.55381C1.94794 4.85481 3.38843 2.36162 5.72455 1.01212C8.06068 -0.337375 10.9393 -0.337375 13.2754 1.01212C15.6116 2.36162 17.0521 4.85481 17.0521 7.55381V8.23674C17.6367 8.54547 18.1278 9.00855 18.4692 9.57455C18.8129 10.1405 18.9953 10.7907 19 11.4503V11.4456Z" fill="#8D8D8D"/>
</svg>
