<svg width="57" height="50" viewBox="0 0 57 50" fill="none" xmlns="http://www.w3.org/2000/svg">
<g clip-path="url(#clip0_719_203)">
<path d="M52.6492 23.1042C49.4577 20.8164 45.3489 19.8183 41.433 20.4238C40.9613 20.4963 38.9077 21.1502 38.7193 21.0716L27.2182 10.9602C26.5964 10.6854 26.0405 10.6642 25.4387 10.9949C18.6789 16.6864 12.1428 22.6557 5.44581 28.4257C4.96187 28.6341 4.81026 28.5903 4.4029 28.3215C3.99554 28.0527 0.690702 24.356 0.277215 23.7837C-0.508411 22.6919 0.569719 22.4518 1.19301 21.6666C9.21314 15.1597 16.6314 7.62293 24.624 1.12962C25.0436 0.788339 25.8843 -0.0301201 26.3759 8.12961e-05L52.6492 23.1027V23.1042Z" fill="#41B6A6"/>
<path d="M45.6061 7.7014V15.2518L45.1452 15.0268L34.2628 5.52388C34.056 4.7326 33.7406 3.14702 34.9596 3.16967L46.5326 3.24065C46.6827 3.31464 46.9017 3.40676 46.9967 3.53813C47.231 3.86431 47.231 7.00828 46.9967 7.33596C46.7271 7.71348 46.0395 7.73462 45.6077 7.70291L45.6061 7.7014Z" fill="#41B6A6"/>
<path d="M44.9935 49.5304L44.3503 49.8777C32.5124 50.1284 20.6238 49.9034 8.76747 49.9909C7.77356 49.8958 7.10126 49.4262 7.00632 48.4054C6.44122 42.2639 7.45196 35.2904 7.00632 29.0613L7.15793 28.4558L25.0114 12.8386C25.7986 12.2074 26.8246 12.2074 27.6133 12.8386L37.4895 21.5231C37.5508 21.8236 37.4237 21.7073 37.2966 21.7798C35.5446 22.7825 34.1127 23.619 32.7482 25.1488C32.1846 25.7815 31.2995 27.4954 30.5276 27.4894C29.8369 27.4833 29.2703 27.438 28.5214 27.4622C28.33 27.4682 27.6899 27.2281 27.6899 27.5603V33.2231C27.6899 33.2911 29.0682 33.1552 29.0682 33.2231V35.5637C29.0682 35.9458 27.6899 35.7193 27.6899 35.7902V41.2265H30.3699C32.2581 44.6921 35.1617 47.4691 38.9842 48.7391C39.776 49.0019 41.5478 49.5319 42.3151 49.5319H44.9951L44.9935 49.5304ZM25.238 27.3474H19.1123V33.2216H25.238V27.3474ZM25.238 35.7887H19.1123V41.225H25.238V35.7887Z" fill="#41B6A6"/>
<path d="M57.0001 34.9039C57.0001 42.0752 51.1041 47.8905 43.8298 47.8905C36.5554 47.8905 30.6594 42.0767 30.6594 34.9039C30.6594 27.731 36.5554 21.9172 43.8298 21.9172C51.1041 21.9172 57.0001 27.731 57.0001 34.9039ZM54.5529 34.9008C54.5529 29.0644 49.7549 24.3334 43.8359 24.3334C37.9169 24.3334 33.1189 29.0644 33.1189 34.9008C33.1189 40.7373 37.9169 45.4683 43.8359 45.4683C49.7549 45.4683 54.5529 40.7373 54.5529 34.9008Z" fill="#2B5264"/>
<path d="M44.9797 26.742C45.1267 26.9957 44.8035 27.9485 45.1359 28.172C45.3273 28.3019 47.1497 28.3366 47.5969 28.693L46.9812 30.9551C45.7913 30.123 42.5416 29.9539 43.0332 32.0559C43.2644 33.0465 45.3074 33.7185 46.1144 34.3029C48.6857 36.1679 48.5709 39.4477 45.6596 40.8989C45.4575 41.0001 44.7346 41.2024 44.7071 41.2447C44.5585 41.4712 44.7714 42.7956 44.6871 43.1882C42.7928 43.1746 42.1097 43.6684 42.39 41.3746C41.5033 41.4274 40.6288 41.1889 39.7988 40.908L40.2475 38.6595C41.7437 39.1684 45.2645 39.8766 44.6519 37.2551C44.315 35.8145 40.367 35.1471 39.8524 32.7778C39.4006 30.6969 40.4451 29.59 42.099 28.6341C42.2828 28.5284 42.7958 28.4167 42.8265 28.3699C42.9643 28.163 42.7514 26.822 42.8464 26.7284C42.9214 26.6544 44.9245 26.6514 44.9766 26.7435L44.9797 26.742Z" fill="#2B5264"/>
</g>
<defs>
<clipPath id="clip0_719_203">
<rect width="57" height="50" fill="white"/>
</clipPath>
</defs>
</svg>
