<svg width="25" height="25" viewBox="0 0 25 25" fill="none" xmlns="http://www.w3.org/2000/svg">
<g clip-path="url(#clip0_278_606)">
<path d="M11.9001 13.6201V15.6901C11.9001 15.6901 11.7001 15.9001 11.6901 15.9001H9.62006V17.9701C9.62006 18.4201 7.67006 18.2301 7.34006 18.2601C7.27006 18.7201 7.54006 20.2801 7.09006 20.5001C6.75006 20.6601 5.12006 20.4401 4.99006 20.5501C4.79006 21.0501 4.92006 22.8301 4.52006 23.0801C4.45006 23.1201 4.42006 23.1301 4.34006 23.1501C3.37006 23.4001 1.99006 23.2301 0.970056 23.4901C0.440057 23.3801 0.480056 23.0601 0.500056 22.6101C0.540056 21.6501 0.800056 20.5701 0.860056 19.5901L1.27006 19.0701L11.4301 8.97006C11.4101 8.46006 11.1701 7.96006 11.1301 7.42006C10.5601 0.0700564 20.2801 -2.07994 23.0001 4.17006C24.9401 8.62006 21.3801 13.2901 16.5901 12.8601C16.2501 12.8301 15.2701 12.4901 15.0901 12.5401C14.8901 12.6001 14.0601 13.6201 13.9701 13.6201H11.9001Z" stroke="#2B5264" stroke-miterlimit="10"/>
<path d="M19 6.13014C19.6186 6.13014 20.12 5.6287 20.12 5.01014C20.12 4.39158 19.6186 3.89014 19 3.89014C18.3814 3.89014 17.88 4.39158 17.88 5.01014C17.88 5.6287 18.3814 6.13014 19 6.13014Z" fill="#2B5264"/>
</g>
<defs>
<clipPath id="clip0_278_606">
<rect width="24.04" height="24.01" fill="white"/>
</clipPath>
</defs>
</svg>
