<svg width="50" height="47" viewBox="0 0 50 47" fill="none" xmlns="http://www.w3.org/2000/svg">
<g clip-path="url(#clip0_719_226)">
<path d="M37.6645 33.9231C35.3695 31.6735 32.8039 29.3382 30.6061 27.0274C30.0666 26.4596 29.8021 25.4955 28.8476 25.4175C28.2549 25.3685 27.9418 25.8444 27.3201 25.2093C27.0374 24.9201 26.9037 24.5635 26.9873 24.1519C27.08 23.7004 29.8903 20.4867 30.3082 20.2939C31.1594 19.9021 32.2385 20.5754 32.2552 21.5105C32.2628 21.9329 31.8585 22.5618 32.1139 22.897L48.7674 35.8284C51.8543 38.3336 48.5743 43.2781 45.15 41.154C43.2106 39.9527 39.5325 35.7534 37.6645 33.9231Z" fill="#41B6A6"/>
<path d="M10.1681 16.9317C11.1074 16.9485 11.5953 17.3954 12.2914 17.9218C14.9208 19.9143 18.4804 23.0439 20.8849 25.3379C22.3227 26.7075 23.1358 27.814 21.9777 29.8095C21.5141 30.6099 20.1903 31.5128 19.2662 31.5297C18.9592 31.5358 17.7843 31.0843 17.4864 30.9007C16.2492 30.1386 14.0453 27.9456 12.8233 26.8728C11.5025 25.7113 8.61171 23.3806 7.66177 22.1226C6.09628 20.0521 7.49762 16.8842 10.1666 16.9317H10.1681Z" fill="#41B6A6"/>
<path d="M20.3818 5.54293C20.7709 5.44193 21.5217 6.17496 21.8668 6.44431C24.9491 8.84542 28.758 11.9092 31.5941 14.5551C31.8768 14.8199 32.1595 15.0923 32.4072 15.3907C31.3129 16.5048 24.2059 25.5032 23.5371 25.5736C23.11 25.618 22.5325 25.0656 22.1783 24.8008C18.7342 22.2252 15.5759 18.8585 12.0604 16.3181C11.457 15.7901 11.837 15.2897 12.223 14.7847C14.1578 12.2627 17.0943 8.925 19.2844 6.59122C19.4775 6.38615 20.2116 5.58731 20.3818 5.54293Z" fill="#41B6A6"/>
<path d="M23.5781 0.0505274C24.4672 -0.0994466 25.1405 0.0949074 25.8883 0.558602C28.8065 3.23059 32.2096 5.59497 35.0898 8.28073C36.2099 9.32596 36.8635 9.86923 36.6887 11.5679C36.4805 13.6063 34.2949 14.7112 32.4816 13.8145C31.1213 13.1411 27.6559 9.91055 26.282 8.73218C25.2864 7.87978 21.6767 5.02874 21.2785 4.1289C20.5626 2.51745 21.8697 0.339763 23.5781 0.0505274Z" fill="#41B6A6"/>
<path d="M2.30728 42.4472L29.0042 42.5666C30.5804 42.9155 30.936 44.5576 30.746 45.9854C30.6169 46.9618 30.1898 46.8914 29.3234 47L1.36951 46.9771C-1.06081 46.8501 0.051756 42.1718 2.30728 42.4472Z" fill="#2B5264"/>
<path d="M27.5344 40.8373C27.3672 41.0056 26.9766 41.0133 26.741 41.0332L3.71158 40.9475C2.38775 39.5411 4.18731 37.1155 5.92911 37.065C12.0102 37.4292 18.7631 36.5217 24.7652 37.042C25.9294 37.143 27.045 37.5623 27.4934 38.7331C27.6788 39.2151 27.9098 40.4593 27.5359 40.8373H27.5344Z" fill="#2B5264"/>
</g>
<defs>
<clipPath id="clip0_719_226">
<rect width="50" height="47" fill="white"/>
</clipPath>
</defs>
</svg>
