<svg width="19" height="23" viewBox="0 0 19 23" fill="none" xmlns="http://www.w3.org/2000/svg">
<g clip-path="url(#clip0_278_946)">
<path d="M17.92 3.30004C18.06 5.26004 18.02 7.22004 18.03 9.19004C18.04 11.29 18.32 13.48 17.49 15.48C16.12 18.81 12.34 20.96 9.23001 22.42C6.11001 20.97 2.18001 18.59 0.910015 15.21C0.180015 13.28 0.540015 10.97 0.550015 8.97004C0.550015 8.24004 0.450015 3.39004 0.670015 3.21004C3.64001 2.81004 6.65001 2.12004 9.23001 0.540039C11.87 2.06004 14.86 3.05004 17.92 3.30004Z" stroke="#2E6DF1" stroke-width="0.92" stroke-miterlimit="10"/>
<path d="M8.73999 16.3801V15.2201C7.98999 15.2001 7.22999 14.9801 6.79999 14.6901L7.11999 13.5601C7.58999 13.8401 8.25999 14.0901 8.98999 14.0901C9.71999 14.0901 10.26 13.7201 10.26 13.1401C10.26 12.6001 9.83999 12.2501 8.94999 11.9301C7.68999 11.4701 6.86999 10.9001 6.86999 9.78006C6.86999 8.75006 7.58999 7.96006 8.79999 7.74006V6.56006H9.77999V7.68006C10.54 7.70006 11.05 7.88006 11.44 8.08006L11.12 9.18006C10.83 9.05006 10.3 8.77006 9.48999 8.77006C8.67999 8.77006 8.34999 9.20006 8.34999 9.61006C8.34999 10.1001 8.77999 10.3801 9.79999 10.7901C11.14 11.2901 11.74 11.9401 11.74 13.0101C11.74 14.0801 11.03 14.9301 9.70999 15.1401V16.3801H8.72999H8.73999Z" fill="#2E6DF1"/>
</g>
<defs>
<clipPath id="clip0_278_946">
<rect width="18.54" height="22.93" fill="white"/>
</clipPath>
</defs>
</svg>
