<svg width="173" height="28" viewBox="0 0 173 28" fill="none" xmlns="http://www.w3.org/2000/svg">
<g clip-path="url(#clip0_281_508)">
<path d="M9.5519 11.3255C9.90956 11.3255 10.2055 11.445 10.4409 11.684C10.6752 11.923 10.7924 12.2311 10.7924 12.6095V21.5086C10.7924 21.8744 10.6752 22.1804 10.4409 22.4257C10.2066 22.6699 9.91059 22.7926 9.5519 22.7926C9.19322 22.7926 8.89928 22.6699 8.66495 22.4257C8.43063 22.1804 8.31346 21.8744 8.31346 21.5086V20.4782L8.76773 20.6679C8.76773 20.8503 8.67112 21.0715 8.47893 21.3314C8.28571 21.5903 8.02467 21.8461 7.69476 22.0976C7.36485 22.3502 6.97636 22.5641 6.53032 22.7402C6.08325 22.9152 5.59918 23.0022 5.07605 23.0022C4.12641 23.0022 3.26721 22.7527 2.4964 22.2549C1.72662 21.757 1.11819 21.0704 0.670092 20.1931C0.223022 19.3168 0 18.3106 0 17.1733C0 16.036 0.223022 15.0099 0.670092 14.1336C1.11819 13.2573 1.72045 12.5697 2.47688 12.0718C3.2333 11.5739 4.07194 11.3245 4.99281 11.3245C5.58376 11.3245 6.12641 11.4157 6.62179 11.597C7.11716 11.7794 7.54676 12.011 7.91059 12.2919C8.27544 12.5728 8.55807 12.8579 8.75642 13.1462C8.95581 13.4334 9.05653 13.6745 9.05653 13.8715L8.31346 14.1441V12.6085C8.31346 12.2437 8.43063 11.9376 8.66495 11.6934C8.89928 11.4481 9.19424 11.3245 9.5519 11.3245V11.3255ZM5.38541 20.6889C5.99075 20.6889 6.52004 20.5348 6.97431 20.2256C7.42857 19.9174 7.78212 19.4961 8.03597 18.9636C8.28983 18.4301 8.41727 17.8326 8.41727 17.1733C8.41727 16.514 8.28983 15.8977 8.03597 15.3652C7.78212 14.8327 7.42754 14.4124 6.97431 14.1032C6.52004 13.795 5.99075 13.6399 5.38541 13.6399C4.78006 13.6399 4.27235 13.794 3.81809 14.1032C3.36382 14.4124 3.00925 14.8327 2.75437 15.3652C2.50051 15.8977 2.37307 16.5004 2.37307 17.1733C2.37307 17.8462 2.49949 18.4301 2.75437 18.9636C3.00925 19.4961 3.36485 19.9174 3.81809 20.2256C4.27235 20.5348 4.79445 20.6889 5.38541 20.6889Z" fill="#274C5D"/>
<path d="M13.4101 22.7915C13.0534 22.7915 12.7574 22.6689 12.5231 22.4247C12.2888 22.1794 12.1716 21.8733 12.1716 21.5075V12.8181C12.1716 12.4544 12.2888 12.1494 12.5231 11.9031C12.7574 11.6578 13.0524 11.5341 13.4101 11.5341C13.7677 11.5341 14.0637 11.6578 14.297 11.9031C14.5313 12.1494 14.6485 12.4544 14.6485 12.8181V14.7971L14.5046 13.3862C14.6557 13.0498 14.852 12.7521 15.0915 12.4932C15.332 12.2332 15.6043 12.0152 15.9075 11.8402C16.2097 11.6651 16.5334 11.5362 16.8777 11.4513C17.221 11.3674 17.5653 11.3245 17.9096 11.3245C18.3217 11.3245 18.6691 11.444 18.9507 11.6829C19.2333 11.9219 19.3751 12.2018 19.3751 12.5236C19.3751 12.9869 19.258 13.3202 19.0236 13.5235C18.7893 13.7258 18.5355 13.8275 18.261 13.8275C17.9866 13.8275 17.7626 13.7793 17.5478 13.6808C17.335 13.5833 17.0904 13.534 16.815 13.534C16.5673 13.534 16.3165 13.5938 16.0617 13.7133C15.8078 13.8317 15.5745 14.0172 15.3618 14.2698C15.149 14.5225 14.9774 14.8348 14.8458 15.2069C14.7143 15.578 14.6485 16.0161 14.6485 16.5213V21.5065C14.6485 21.8723 14.5313 22.1783 14.297 22.4236C14.0637 22.6678 13.7688 22.7905 13.4101 22.7905V22.7915Z" fill="#274C5D"/>
<path d="M21.0638 22.7915C20.7071 22.7915 20.4111 22.6689 20.1768 22.4247C19.9425 22.1794 19.8253 21.8733 19.8253 21.5075V12.8181C19.8253 12.4544 19.9425 12.1494 20.1768 11.9031C20.4111 11.6578 20.7061 11.5341 21.0638 11.5341C21.4214 11.5341 21.7174 11.6578 21.9507 11.9031C22.185 12.1494 22.3022 12.4544 22.3022 12.8181V14.7971L22.1583 13.3862C22.3094 13.0498 22.5057 12.7521 22.7452 12.4932C22.9856 12.2332 23.258 12.0152 23.5612 11.8402C23.8633 11.6651 24.1871 11.5362 24.5314 11.4513C24.8747 11.3674 25.2189 11.3245 25.5632 11.3245C25.9754 11.3245 26.3227 11.444 26.6044 11.6829C26.887 11.9219 27.0288 12.2018 27.0288 12.5236C27.0288 12.9869 26.9116 13.3202 26.6773 13.5235C26.443 13.7258 26.1891 13.8275 25.9147 13.8275C25.6403 13.8275 25.4163 13.7793 25.2015 13.6808C24.9887 13.5833 24.7441 13.534 24.4687 13.534C24.221 13.534 23.9702 13.5938 23.7153 13.7133C23.4615 13.8317 23.2282 14.0172 23.0155 14.2698C22.8027 14.5225 22.6311 14.8348 22.4995 15.2069C22.368 15.578 22.3022 16.0161 22.3022 16.5213V21.5065C22.3022 21.8723 22.185 22.1783 21.9507 22.4236C21.7174 22.6678 21.4224 22.7905 21.0638 22.7905V22.7915Z" fill="#274C5D"/>
<path d="M29.811 21.5077C29.811 21.8735 29.6938 22.1795 29.4595 22.4248C29.2251 22.669 28.9291 22.7917 28.5725 22.7917C28.2159 22.7917 27.9178 22.669 27.6835 22.4248C27.4502 22.1795 27.3341 21.8735 27.3341 21.5077V12.8183C27.3341 12.4545 27.4502 12.1495 27.6835 11.9032C27.9178 11.6579 28.2138 11.5342 28.5725 11.5342C28.9312 11.5342 29.2241 11.6579 29.4595 11.9032C29.6938 12.1495 29.811 12.4545 29.811 12.8183V21.5077ZM28.552 10.1685C28.0854 10.1685 27.7555 10.092 27.5622 9.93683C27.369 9.78274 27.2734 9.50917 27.2734 9.1161V8.71675C27.2734 8.31006 27.3793 8.03438 27.592 7.88659C27.8048 7.73775 28.1316 7.66333 28.5725 7.66333C29.0535 7.66333 29.3906 7.7409 29.5828 7.89498C29.776 8.04906 29.8716 8.32263 29.8716 8.7157V9.11506C29.8716 9.5228 29.7678 9.80056 29.5612 9.94731C29.3557 10.0951 29.0186 10.1674 28.5509 10.1674L28.552 10.1685Z" fill="#274C5D"/>
<path d="M36.2477 23.0013C35.0782 23.0013 34.0648 22.7519 33.2056 22.254C32.3464 21.7561 31.6856 21.08 31.2251 20.2258C30.7637 19.3694 30.5334 18.4019 30.5334 17.3213C30.5334 16.0593 30.7842 14.9828 31.2868 14.0918C31.7894 13.2009 32.4461 12.5175 33.257 12.0416C34.0689 11.5647 34.9291 11.3257 35.8366 11.3257C36.5376 11.3257 37.2005 11.4735 37.8253 11.7691C38.4512 12.0636 39.0052 12.4671 39.4872 12.9787C39.9682 13.4902 40.3495 14.0824 40.6311 14.7564C40.9137 15.4293 41.0555 16.1442 41.0555 16.9009C41.0422 17.2374 40.9117 17.511 40.664 17.7217C40.4163 17.9313 40.1285 18.0361 39.7986 18.0361H31.9168L31.2981 15.9335H38.8695L38.4153 16.3548V15.7867C38.3875 15.379 38.2467 15.0153 37.9908 14.6924C37.7369 14.3696 37.4204 14.1128 37.0422 13.9241C36.664 13.7354 36.2621 13.6401 35.8366 13.6401C35.4111 13.6401 35.0381 13.6967 34.6804 13.8078C34.3238 13.9199 34.0134 14.1096 33.7513 14.3759C33.4903 14.6421 33.2837 15.0006 33.1326 15.4503C32.9815 15.8989 32.9055 16.467 32.9055 17.1535C32.9055 17.9103 33.0607 18.5529 33.37 19.0801C33.6794 19.6063 34.0792 20.0056 34.5674 20.2792C35.0555 20.5528 35.5746 20.6901 36.1244 20.6901C36.6342 20.6901 37.0401 20.6482 37.3423 20.5633C37.6444 20.4794 37.889 20.3767 38.0751 20.2572C38.2601 20.1377 38.4286 20.036 38.5807 19.9511C38.8274 19.8264 39.0617 19.7635 39.2827 19.7635C39.5848 19.7635 39.8356 19.8694 40.034 20.0801C40.2333 20.2897 40.3341 20.5339 40.3341 20.8138C40.3341 21.1922 40.1408 21.536 39.7554 21.8441C39.3988 22.1534 38.8973 22.4227 38.2498 22.6544C37.6023 22.886 36.9353 23.0013 36.2477 23.0013Z" fill="#274C5D"/>
<path d="M47.8222 11.3257C48.8397 11.3257 49.6136 11.5437 50.1429 11.9787C50.6721 12.4126 51.036 12.9912 51.2353 13.7145C51.4347 14.4367 51.5355 15.2396 51.5355 16.1232V21.5087C51.5355 21.8745 51.4183 22.1806 51.184 22.4259C50.9507 22.6701 50.6557 22.7927 50.297 22.7927C49.9383 22.7927 49.6444 22.6701 49.4101 22.4259C49.1757 22.1806 49.0586 21.8745 49.0586 21.5087V16.1232C49.0586 15.6599 49 15.2427 48.8828 14.8717C48.7657 14.4996 48.556 14.2008 48.2528 13.9765C47.9496 13.7522 47.517 13.6401 46.9527 13.6401C46.3885 13.6401 45.9394 13.7522 45.5611 13.9765C45.1829 14.2008 44.8941 14.4996 44.6937 14.8717C44.4933 15.2427 44.3936 15.6599 44.3936 16.1232V21.5087C44.3936 21.8745 44.2765 22.1806 44.0421 22.4259C43.8088 22.6701 43.5139 22.7927 43.1552 22.7927C42.7965 22.7927 42.5026 22.6701 42.2682 22.4259C42.0339 22.1806 41.9167 21.8745 41.9167 21.5087V12.8193C41.9167 12.4556 42.0339 12.1506 42.2682 11.9043C42.5026 11.659 42.7975 11.5353 43.1552 11.5353C43.5128 11.5353 43.8088 11.659 44.0421 11.9043C44.2765 12.1506 44.3936 12.4556 44.3936 12.8193V13.7239L44.0853 13.661C44.2097 13.4241 44.3875 13.1684 44.6208 12.8948C44.8551 12.6212 45.1295 12.3655 45.445 12.1265C45.7616 11.8875 46.1192 11.6957 46.518 11.5479C46.9178 11.4012 47.3515 11.3278 47.8201 11.3278L47.8222 11.3257Z" fill="#274C5D"/>
<path d="M61.9528 7.222C62.3104 7.222 62.6064 7.34149 62.8418 7.58047C63.0761 7.81946 63.1933 8.12762 63.1933 8.50601V21.5076C63.1933 21.8734 63.0761 22.1795 62.8418 22.4248C62.6075 22.669 62.3115 22.7916 61.9528 22.7916C61.5941 22.7916 61.3002 22.669 61.0658 22.4248C60.8315 22.1795 60.7143 21.8734 60.7143 21.5076V20.4772L61.1686 20.667C61.1686 20.8493 61.072 21.0705 60.8798 21.3305C60.6866 21.5894 60.4255 21.8451 60.0956 22.0967C59.7657 22.3493 59.3772 22.5631 58.9312 22.7392C58.4841 22.9143 58.0001 23.0013 57.4769 23.0013C56.5273 23.0013 55.6681 22.7518 54.8973 22.2539C54.1275 21.756 53.5191 21.0695 53.071 20.1921C52.6239 19.3159 52.4009 18.3096 52.4009 17.1723C52.4009 16.0351 52.6239 15.0089 53.071 14.1326C53.5191 13.2564 54.1213 12.5687 54.8778 12.0709C55.6342 11.573 56.4728 11.3235 57.3937 11.3235C57.9846 11.3235 58.5273 11.4147 59.0227 11.596C59.518 11.7784 59.9476 12.0101 60.3115 12.291C60.6763 12.5719 60.9589 12.857 61.1573 13.1452C61.3567 13.4324 61.4574 13.6735 61.4574 13.8706L60.7143 14.1431V8.50496C60.7143 8.1402 60.8315 7.83413 61.0658 7.58991C61.3002 7.34463 61.5951 7.22095 61.9528 7.22095V7.222ZM57.7853 20.689C58.3906 20.689 58.9199 20.5349 59.3742 20.2257C59.8284 19.9175 60.182 19.4962 60.4358 18.9637C60.6897 18.4302 60.8171 17.8327 60.8171 17.1734C60.8171 16.5141 60.6897 15.8978 60.4358 15.3653C60.182 14.8328 59.8274 14.4125 59.3742 14.1033C58.9199 13.7951 58.3906 13.64 57.7853 13.64C57.1799 13.64 56.6722 13.7941 56.2179 14.1033C55.7637 14.4125 55.4091 14.8328 55.1542 15.3653C54.9004 15.8978 54.7729 16.5005 54.7729 17.1734C54.7729 17.8463 54.8993 18.4302 55.1542 18.9637C55.4091 19.4962 55.7647 19.9175 56.2179 20.2257C56.6722 20.5349 57.1943 20.689 57.7853 20.689Z" fill="#274C5D"/>
<path d="M72.7625 11.5353C73.1202 11.5353 73.4162 11.659 73.6495 11.9043C73.8838 12.1506 74.001 12.4556 74.001 12.8193V21.7613C74.001 23.0506 73.7636 24.0778 73.2898 24.843C72.816 25.6081 72.1798 26.1595 71.3823 26.4959C70.5837 26.8324 69.6896 27.0001 68.6999 27.0001C68.26 27.0001 67.7923 26.9655 67.297 26.8953C66.8016 26.8251 66.3956 26.7192 66.0811 26.5787C65.668 26.3964 65.3833 26.1689 65.225 25.8953C65.0668 25.6218 65.0349 25.3304 65.1305 25.0222C65.2548 24.6155 65.4542 24.3388 65.7297 24.192C66.0051 24.0442 66.2939 24.0275 66.5971 24.1396C66.817 24.2099 67.1048 24.3178 67.4624 24.4646C67.8201 24.6113 68.2333 24.6847 68.6999 24.6847C69.3319 24.6847 69.8581 24.5966 70.2774 24.4205C70.6968 24.2455 71.0133 23.952 71.2261 23.538C71.4398 23.1239 71.5477 22.56 71.5477 21.8431V20.4343L71.9804 20.9385C71.7461 21.4018 71.4532 21.7833 71.1027 22.0852C70.7523 22.3871 70.3371 22.6145 69.8561 22.7686C69.3751 22.9227 68.8242 23.0003 68.2055 23.0003C67.4758 23.0003 66.8396 22.8284 66.2959 22.4846C65.7533 22.1408 65.3309 21.6649 65.0287 21.0538C64.7255 20.4438 64.5745 19.7457 64.5745 18.9595V12.8172C64.5745 12.4535 64.6916 12.1485 64.926 11.9022C65.1603 11.6569 65.4552 11.5332 65.8129 11.5332C66.1706 11.5332 66.4665 11.6569 66.6998 11.9022C66.9342 12.1485 67.0513 12.4535 67.0513 12.8172V18.2049C67.0513 19.1168 67.2476 19.7583 67.6402 20.1314C68.0328 20.5025 68.5796 20.688 69.2805 20.688C69.7615 20.688 70.1675 20.5936 70.4964 20.4039C70.8273 20.2132 71.0822 19.9322 71.261 19.5612C71.4388 19.1901 71.5282 18.7384 71.5282 18.2049V12.8172C71.5282 12.4535 71.6454 12.1485 71.8797 11.9022C72.114 11.6569 72.409 11.5332 72.7667 11.5332L72.7625 11.5353Z" fill="#274C5D"/>
<path d="M28.7225 10.3695C29.5676 10.3695 30.2528 9.67075 30.2528 8.80878C30.2528 7.94681 29.5676 7.24805 28.7225 7.24805C27.8773 7.24805 27.1921 7.94681 27.1921 8.80878C27.1921 9.67075 27.8773 10.3695 28.7225 10.3695Z" fill="#46B5A3"/>
<path d="M71.0832 8.85815L62.6331 0.245273C62.3124 -0.0817578 61.7924 -0.0817578 61.4707 0.245273L53.0216 8.85815C52.9239 8.95772 52.8951 9.10656 52.9476 9.23654C53 9.36547 53.1243 9.45037 53.2621 9.45037H57.2466L62.0524 4.55223L66.8582 9.45037H70.8427C70.9804 9.45037 71.1048 9.36547 71.1572 9.23654C71.2107 9.10656 71.1809 8.95772 71.0832 8.85815Z" fill="#46B5A3"/>
</g>
<line x1="92.5809" y1="1" x2="92.5809" y2="28" stroke="#E0E0E0" stroke-width="1.1619"/>
<g clip-path="url(#clip1_281_508)">
<path d="M147.552 9.43286L147.017 9.43473C144.189 9.44221 141.532 11.5168 141.418 15.5744C141.313 19.2675 143.234 21.8467 146.483 21.8467C149.155 21.8467 150.092 19.9852 150.092 19.9852C150.249 21.2262 150.918 21.6131 152.264 21.6131V9.43286H147.552ZM149.97 16.6079C149.97 18.2938 149 19.8955 146.905 19.8955C145.025 19.8955 143.676 18.6376 143.767 15.5968C143.849 12.683 145.249 11.4028 147.107 11.4028C147.251 11.4028 147.387 11.399 147.516 11.3897H149.97V16.6079Z" fill="#0030A6"/>
<path d="M128.623 9.34138L128.632 17.7967C128.632 19.0246 127.613 19.6489 126.268 19.6489C124.853 19.6489 123.915 19.0246 123.915 17.7967L123.907 11.4683C123.902 9.66472 122.771 9.33765 121.78 9.33765V18.3144C121.78 20.5778 123.819 21.6917 126.202 21.6917C128.585 21.6917 130.77 20.5778 130.77 18.3144L130.763 11.7393C130.763 9.9675 130.103 9.33952 128.623 9.33952V9.34138Z" fill="#0030A6"/>
<path d="M133.833 13.9988V21.5309H135.962V13.9259C135.962 12.3111 136.826 11.3374 138.47 11.3374H139.102C140.965 11.3374 141.266 10.3767 141.266 9.33569H138.289C135.646 9.33569 133.831 10.8645 133.831 13.997L133.833 13.9988Z" fill="#0030A6"/>
<path d="M116.285 14.7988L113.676 14.0829C112.962 13.8886 112.31 13.5746 112.31 12.698C112.31 11.8215 112.858 11.3411 114.016 11.3411H116.332C117.358 11.3411 118.577 11.0103 118.577 9.34131L114.218 9.34505C111.536 9.34878 110.002 10.7019 110.002 12.6419C110.002 14.4493 111.146 15.4735 113.192 16.0136L115.463 16.6117C116.399 16.864 116.734 17.449 116.734 18.0546C116.734 18.9648 116.16 19.5142 114.751 19.5311L110.404 19.561V21.5309H114.826C117.509 21.5309 119.046 20.0918 119.046 18.191C119.046 16.2902 118.293 15.3445 116.289 14.7969L116.285 14.7988Z" fill="#0030A6"/>
<path fill-rule="evenodd" clip-rule="evenodd" d="M164.162 24.2802C164.188 24.2802 164.206 24.3026 164.199 24.3456C163.894 25.0708 163.549 25.6184 162.872 25.9585C161.689 26.551 161.067 26.2127 160.984 26.1716C160.962 26.1604 160.943 26.1323 160.945 26.1062C160.949 26.08 160.969 26.0557 160.997 26.0538C161.513 25.895 163.066 25.3193 164.126 24.2876C164.134 24.2802 164.15 24.2783 164.162 24.2802ZM164.306 22.1327C163.489 22.6186 161.814 23.3307 160.351 23.7438C158.611 24.2391 157.213 24.4783 156.274 24.3419C155.456 24.2204 155.045 23.8391 154.921 23.697C154.904 23.6765 154.882 23.6578 154.89 23.6335C154.893 23.6055 154.919 23.5793 154.953 23.5756L155.273 23.5531C155.964 23.5045 157.213 23.4746 158.667 23.2653C160.349 23.0186 163.046 22.5401 164.283 22.0561C164.309 22.0617 164.328 22.0822 164.304 22.1327H164.306ZM164.427 22.8616C164.449 22.8653 164.47 22.884 164.461 22.9289C164.225 23.2429 163.833 23.598 163.324 23.9587C162.822 24.3157 162.231 24.6596 161.616 24.9567C160.964 25.267 160.392 25.5268 159.792 25.6838C159.121 25.8595 158.534 25.9211 158.048 25.8632C157.658 25.8184 157.334 25.7006 157.087 25.5044C157.074 25.4913 157.069 25.4707 157.071 25.4539C157.074 25.424 157.099 25.4034 157.132 25.3941C158.639 25.1511 160.027 24.7792 161.315 24.3362C162.584 23.8989 163.648 23.3924 164.429 22.8597L164.427 22.8616ZM171.073 16.7986C171.099 16.8042 171.114 16.8248 171.099 16.8752C170.499 17.3799 167.746 19.6712 166.264 20.8861L166.212 20.9309C165.782 21.2543 165.492 21.3309 165.446 20.6188C165.433 20.4469 165.41 20.3067 165.41 20.3067C165.384 20.1572 165.429 20.1609 165.487 20.1254C165.969 19.8282 166.894 19.3124 167.63 18.8732C168.942 18.0901 170.479 17.1574 171.071 16.8005L171.073 16.7986ZM169.047 19.8544C169.075 19.8581 169.09 19.8806 169.077 19.9254C168.483 20.6113 166.287 23.0242 165.294 24.0839C165.191 24.1923 165.137 24.1419 165.178 24.0353C165.178 24.0353 165.367 23.5643 165.447 23.1999C165.498 22.9775 165.55 22.7999 165.67 22.699C166.959 21.615 168.195 20.5385 169.012 19.8675L169.047 19.8544ZM171.761 15.608C171.78 15.6043 171.813 15.6006 171.817 15.6193C171.821 15.6305 171.847 15.6548 171.804 15.6828C171.524 15.8641 165.375 18.4022 165.315 18.4246C164.976 18.5405 164.601 18.6003 164.326 18.1349C164.212 17.9405 164.111 17.7836 164.066 17.7107C164.048 17.6808 163.98 17.6079 164.16 17.563C164.16 17.563 165.894 17.0976 167.434 16.7089C169.215 16.2622 171.228 15.752 171.759 15.608H171.761ZM172.408 14.7278C172.432 14.7296 172.451 14.7539 172.449 14.7763C172.449 14.7932 172.432 14.81 172.411 14.8119C171.944 14.8847 163.393 16.0529 163.332 16.0622C163.285 16.0697 163.233 16.0734 163.18 16.0753C163.136 16.0753 163.085 16.0753 163.038 16.0678C162.631 16.0248 162.237 15.8267 161.881 15.4511C161.698 15.2585 161.538 14.952 161.493 14.8287C161.481 14.8119 161.481 14.7894 161.495 14.7726C161.508 14.7502 161.532 14.7408 161.551 14.7371C161.551 14.7371 164.423 14.7315 166.231 14.7352C167.578 14.7371 169.017 14.739 170.187 14.739C171.204 14.739 172.011 14.739 172.409 14.7296L172.408 14.7278ZM172.963 13.9708C172.985 13.9745 173.002 13.9932 173 14.0175C173 14.0381 172.978 14.0512 172.95 14.0512C171.697 13.9596 160.45 13.1728 160.45 13.1728C160.345 13.1634 160.261 13.1541 160.16 13.1223C159.269 12.8382 158.749 12.1523 158.542 11.4608C158.534 11.4327 158.528 11.4084 158.542 11.3841C158.555 11.3636 158.585 11.3486 158.611 11.3561C158.613 11.3561 171.869 13.7671 172.961 13.9708H172.963ZM170.632 11.7878C170.643 11.842 170.619 11.8588 170.576 11.8514C170.092 11.6028 169.002 11.0832 167.909 10.5375C166.982 10.0758 160.644 7.08918 160.214 6.86677L159.457 6.47802C159.345 6.42195 159.244 6.3584 159.143 6.29673C158.842 6.11544 158.689 5.98274 158.525 5.77528C158.39 5.60707 158.287 5.39214 158.203 5.19028C158.024 4.73425 158.031 4.13617 158.043 4.02777C158.043 4.01282 158.052 3.99039 158.074 3.98105C158.091 3.96983 158.112 3.96796 158.155 3.98291L158.943 4.46511L159.368 4.7249L161.687 6.1416C164.924 8.16011 169.455 11.0421 170.634 11.7841L170.632 11.7878ZM172.008 13.0924C172.028 13.0999 172.039 13.1185 172.038 13.1354C172.032 13.1578 172.013 13.1765 171.976 13.1709C171.621 13.0681 170.869 12.8588 169.92 12.599C167.746 12.0028 159.534 9.80296 159.398 9.76371L159.36 9.75063C158.867 9.59737 158.463 9.35253 158.153 9.01611C158.059 8.92079 157.979 8.81426 157.902 8.69651C157.628 8.27599 157.56 7.66296 157.545 7.55082C157.545 7.53774 157.551 7.51531 157.566 7.50036C157.581 7.48354 157.605 7.47793 157.648 7.48728L158.99 8.01246C162.177 9.24974 170.632 12.5354 172.008 13.0961V13.0924Z" fill="#00ABC3"/>
</g>
<defs>
<clipPath id="clip0_281_508">
<rect width="74" height="27" fill="white"/>
</clipPath>
<clipPath id="clip1_281_508">
<rect width="63" height="22.3326" fill="white" transform="translate(110 3.97363)"/>
</clipPath>
</defs>
</svg>
