<svg width="22" height="22" viewBox="0 0 22 22" fill="none" xmlns="http://www.w3.org/2000/svg">
<path d="M10.6299 0.424805C10.8519 0.42685 11.0673 0.508182 11.2656 0.660156L20.5166 9.06641C20.6546 9.24113 20.7421 9.38256 20.7891 9.53516C20.8638 13.2495 20.8727 16.9873 20.79 20.6914C20.7146 20.9256 20.5954 21.0868 20.4463 21.1963C20.3251 21.2852 20.1712 21.3513 19.9824 21.3877L19.7812 21.4141C18.8745 21.476 17.9143 21.4613 16.9365 21.4316C15.9876 21.4029 15.0149 21.3603 14.0869 21.3623C13.7526 21.2654 13.4972 21.0169 13.3984 20.6895C13.2766 18.7348 13.3851 16.8175 13.3506 14.7998C13.3485 14.6053 13.2661 14.4546 13.1816 14.3516C13.1 14.2521 13.004 14.1804 12.9395 14.1357L12.8398 14.0664L12.7197 14.0605L12.2178 14.04C11.0431 14.0054 9.8372 14.0486 8.7041 14.0342H8.68262L8.66016 14.0361C8.28836 14.07 7.95261 14.3872 7.92773 14.7871L7.92676 14.8262C7.87459 15.7569 7.90992 16.7215 7.93945 17.6582C7.96925 18.6031 7.99365 19.5217 7.92773 20.3955V20.3965C7.88969 20.9026 7.63649 21.2434 7.18945 21.3789C6.25965 21.3692 5.27854 21.4146 4.32324 21.4453C3.3355 21.4771 2.36845 21.4931 1.46387 21.4229H1.46289C0.955282 21.3843 0.618715 21.1396 0.486328 20.7041C0.395267 16.9969 0.4123 13.247 0.487305 9.53613C0.527333 9.38246 0.611719 9.24455 0.75293 9.08105L9.98145 0.681641C10.1515 0.545724 10.3401 0.460812 10.5244 0.438477L10.6299 0.424805ZM10.5918 0.508789H10.584C10.4585 0.508789 10.3492 0.55543 10.3047 0.575195C10.2461 0.601253 10.1927 0.631389 10.1611 0.649414L10.1201 0.672852L10.0859 0.704102C6.95531 3.54627 3.80159 6.37734 0.700195 9.25781L0.567383 9.38184L0.564453 9.56348C0.521963 13.2516 0.521963 16.9739 0.564453 20.6621L0.566406 20.792L0.640625 20.8984C0.685281 20.9629 0.756862 21.0599 0.856445 21.1416C0.960707 21.227 1.11392 21.3104 1.31152 21.3105H7.00098C7.22177 21.3104 7.41058 21.2124 7.54199 21.0928C7.67293 20.9735 7.78246 20.8015 7.81152 20.5986L7.81543 20.5684V14.9209C7.84318 14.6238 7.95129 14.3946 8.10645 14.2344C8.26231 14.0735 8.48642 13.9591 8.78223 13.9297C9.38504 13.8732 10.0532 13.8838 10.7432 13.9092C11.3984 13.9333 12.0839 13.9708 12.7119 13.9736C12.954 14.0426 13.1222 14.1632 13.2373 14.3164C13.3299 14.4398 13.3991 14.597 13.4365 14.7881L13.4629 14.9912C13.5247 15.8709 13.5023 16.7884 13.4746 17.7305C13.4474 18.6582 13.4158 19.6116 13.4619 20.5381C13.4619 20.7491 13.5577 20.9107 13.6514 21.0166C13.7429 21.12 13.8502 21.1923 13.9307 21.2383L14.0264 21.293L14.1377 21.2939C16.1043 21.3109 18.1081 21.3363 20.0869 21.2852L20.21 21.2822L20.3115 21.2139C20.4386 21.1291 20.7568 20.8988 20.7295 20.4893C20.7044 16.8692 20.7634 13.1973 20.7041 9.56152L20.7012 9.37988L20.5684 9.25684C17.4499 6.36781 14.2898 3.51298 11.1309 0.676758L11.0742 0.626953L11.0049 0.598633L10.8379 0.539062C10.7687 0.520077 10.6844 0.505392 10.5918 0.508789Z" fill="black" stroke="#2B5264" stroke-width="0.849057"/>
</svg>
