<svg width="29" height="19" viewBox="0 0 29 19" fill="none" xmlns="http://www.w3.org/2000/svg">
<path d="M2.01272 6.47566C2.01272 4.90655 3.26672 3.63633 4.81577 3.63633C6.36483 3.63633 7.62234 4.91011 7.62234 6.47566C7.62234 8.0412 6.36483 9.31498 4.81577 9.31498C3.26672 9.31498 2.01272 8.0412 2.01272 6.47566ZM24.1807 9.31854C25.7298 9.31854 26.9873 8.04476 26.9873 6.47921C26.9873 4.91367 25.7333 3.63989 24.1807 3.63989C22.6281 3.63989 21.3777 4.91367 21.3777 6.47921C21.3777 8.04831 22.6317 9.31854 24.1807 9.31854ZM22.4841 16.7478C22.5157 17.0324 22.5333 17.3206 22.5333 17.6124C22.5333 18.3773 21.9186 19 21.1634 19H7.83309C7.07788 19 6.46318 18.3773 6.46318 17.6124C6.46318 17.3206 6.48425 17.0324 6.51236 16.7478C6.56153 16.271 6.65286 15.8084 6.77931 15.3637H0C0 12.6667 2.15673 10.482 4.81577 10.482C6.29106 10.482 7.6118 11.1581 8.49697 12.2148C8.79906 11.8697 9.13275 11.5494 9.49104 11.2612C10.2006 10.6848 11.0015 10.2258 11.8761 9.91985C10.3095 8.99831 9.25218 7.27978 9.25218 5.31573C9.25218 2.3839 11.6056 0 14.5 0C17.3944 0 19.7478 2.3839 19.7478 5.31573C19.7478 7.27978 18.6905 8.99831 17.1239 9.91985C17.9985 10.2258 18.7994 10.6884 19.509 11.2612C19.8637 11.5494 20.1974 11.8697 20.503 12.2148C21.3882 11.1545 22.7054 10.482 24.1807 10.482C26.8433 10.482 29 12.6667 29 15.3637H22.2172C22.3436 15.812 22.435 16.2745 22.4841 16.7513V16.7478ZM14.5 9.24738C16.6427 9.24738 18.3814 7.4897 18.3814 5.31929C18.3814 3.14888 16.6427 1.38764 14.5 1.38764C12.3573 1.38764 10.6221 3.14888 10.6221 5.31929C10.6221 7.4897 12.3573 9.24738 14.5 9.24738ZM21.1634 17.6124C21.1634 17.3206 21.1423 17.0324 21.1072 16.7478C21.0475 16.2674 20.9386 15.8049 20.784 15.3637C20.5417 14.6663 20.1869 14.0223 19.7478 13.453C19.4493 13.0652 19.1085 12.7094 18.7327 12.3963C17.5805 11.4356 16.1053 10.8592 14.4965 10.8592C12.8877 10.8592 11.4124 11.4356 10.2638 12.3963C9.88796 12.7094 9.55075 13.0652 9.24867 13.453C8.80608 14.0223 8.45482 14.6663 8.21245 15.3637C8.0579 15.8084 7.94901 16.271 7.88929 16.7478C7.85417 17.0324 7.83309 17.317 7.83309 17.6124H21.1634Z" fill="#2B5264"/>
</svg>
