<svg width="58" height="48" viewBox="0 0 58 48" fill="none" xmlns="http://www.w3.org/2000/svg">
<g clip-path="url(#clip0_719_239)">
<path d="M57.4379 19.7526L58 35.5064C57.7609 39.0425 56.0002 41.9259 53.0122 43.7936C50.5588 45.3281 47.6532 46.5173 45.1421 47.9986L44.7092 47.8935C41.082 45.4633 35.9884 44.2195 33.6518 40.3081C31.575 36.8321 32.3378 33.7015 32.4437 29.9143C32.5371 26.5571 32.5578 23.2218 32.779 19.8714L45.0253 15.7852L57.4379 19.7513V19.7526Z" fill="#41B6A6"/>
<path d="M6.45996 25.6779L6.70324 25.3339L28.0043 8.97388L28.3108 9.0162L36.9725 15.6459L36.7389 16.0241L30.6048 17.986L30.3738 18.3027C30.3051 20.3493 30.323 22.4095 30.2433 24.4533C30.0728 28.8494 29.1162 35.6921 30.6831 39.706C31.4968 41.7935 32.9427 43.5547 34.636 44.995H6.45996V25.6765V25.6779ZM25.6691 27.7872H16.9057V36.5318H25.6691V27.7872Z" fill="#2B5264"/>
<path d="M0 22.0627L28.0303 0L44.804 13.254C43.0214 13.9926 41.1342 14.6343 39.2719 15.0766L28.4413 6.71028L27.9891 6.51914L3.09249 25.7448L0 22.0627Z" fill="#2B5264"/>
</g>
<defs>
<clipPath id="clip0_719_239">
<rect width="58" height="48" fill="white"/>
</clipPath>
</defs>
</svg>
