<svg width="47" height="54" viewBox="0 0 47 54" fill="none" xmlns="http://www.w3.org/2000/svg">
<g clip-path="url(#clip0_278_485)">
<path fill-rule="evenodd" clip-rule="evenodd" d="M18.8014 14.7259C18.5498 14.4349 18.5932 13.99 18.8882 13.7504C19.1832 13.5023 19.6343 13.545 19.8773 13.836L22.3587 16.7538L26.8703 10.6786C27.1046 10.3705 27.5384 10.3021 27.8507 10.5331C28.1631 10.7556 28.2325 11.192 28.0069 11.5L22.9834 18.2683C22.9487 18.3196 22.9053 18.371 22.8532 18.4138C22.5582 18.6619 22.1071 18.6191 21.8641 18.3282L18.8014 14.7259ZM31.6596 23.7788C29.4645 26.3286 26.5059 28.3394 23.5734 29.6229C23.3998 29.6999 23.1916 29.7085 23.0094 29.6229C20.0768 28.3394 17.1182 26.3286 14.9231 23.7788C13.0317 21.5797 11.7042 18.9871 11.4439 16.1035L10.4809 5.43338V5.39915C10.4288 5.0141 10.7065 4.67184 11.0969 4.62906C11.1143 4.62906 16.9881 3.96164 22.9053 0.119721C23.1309 -0.0342978 23.4432 -0.0428544 23.6861 0.119721C29.6034 3.9702 35.4859 4.62906 35.5032 4.63761C35.8763 4.6804 36.1539 5.0141 36.1192 5.3906L35.1475 16.1206C34.8872 18.9956 33.5597 21.5968 31.6683 23.7959L31.6596 23.7788Z" fill="#41B6A6"/>
<path d="M3.37503 15.1538C1.51831 15.1538 0.0173224 16.6684 0.0173224 18.5166V24.0356V24.0527V32.1045C-3.01041e-05 34.4233 0.954358 36.6395 2.64623 38.2481L10.4549 45.6753V47.0786H10.1946C9.79547 47.0786 9.46577 47.3951 9.46577 47.7973V53.265C9.46577 53.4532 9.54385 53.6415 9.68267 53.7698C9.82149 53.9067 10.0037 53.9837 10.1946 53.9837H21.3089C21.708 53.9837 22.029 53.6586 22.0377 53.265V47.7973C22.0377 47.4037 21.708 47.0786 21.3089 47.0786H21.0486V40.798C21.0486 39.4461 20.4846 38.154 19.5042 37.2128L15.704 33.5848C15.704 33.5848 15.6953 33.5762 15.6866 33.5677L10.6718 28.7845C9.99502 28.1428 9.12739 27.8262 8.25977 27.8347C7.73052 27.8347 7.20994 27.9631 6.73275 28.2112L6.7501 18.5337C6.7501 16.694 5.25778 15.1709 3.40106 15.1624L3.37503 15.1538ZM43.1991 15.1538C41.3423 15.1538 39.85 16.6769 39.85 18.5251L39.8674 28.2112C39.3902 27.9631 38.8696 27.8433 38.3404 27.8347C37.4727 27.8347 36.5964 28.1513 35.9284 28.7845L30.9135 33.5677C30.9135 33.5677 30.9048 33.5762 30.8961 33.5848L27.0959 37.2128C26.1068 38.154 25.5515 39.4461 25.5515 40.798V47.0786H25.2913C24.8922 47.0786 24.5711 47.4037 24.5625 47.7973V53.265C24.5625 53.6586 24.8835 53.9837 25.2913 53.9837H36.4055C36.5964 53.9837 36.7873 53.9067 36.9174 53.7698C37.0563 53.6329 37.1343 53.4532 37.1343 53.265V47.7973C37.1343 47.4037 36.8047 47.0786 36.4055 47.0786H36.1453V45.6667L43.9539 38.2396C45.6458 36.6309 46.5915 34.4233 46.6001 32.1045C46.6001 32.1045 46.6001 32.1045 46.6001 32.0874L46.5828 18.4995C46.5828 16.6598 45.0818 15.1367 43.2251 15.1367L43.1991 15.1538ZM3.37503 16.5913C4.43354 16.5913 5.27513 17.4299 5.27513 18.5166L5.25778 29.7086C4.65912 30.9665 4.91941 32.5238 5.99526 33.542L12.5632 39.7969C12.8495 40.0707 13.3093 40.0621 13.587 39.7712C13.8646 39.4888 13.856 39.0353 13.5696 38.7615L7.01039 32.5066C6.21217 31.7537 6.19482 30.5728 6.92362 29.8199C7.65243 29.0754 8.84975 29.0583 9.64797 29.8199L14.6802 34.6116L18.4891 38.2396C19.1919 38.907 19.591 39.8311 19.591 40.7894V47.07H11.9125V45.3501C11.9125 45.1362 11.817 44.9394 11.6522 44.8025L3.66135 37.2042C2.2558 35.8694 1.45758 34.0212 1.46626 32.0959L1.48361 18.508C1.48361 17.4213 2.33388 16.5828 3.38371 16.5828L3.37503 16.5913ZM43.1991 16.5913C44.2576 16.5913 45.0992 17.4299 45.0992 18.5166L45.1165 28.853V32.1045C45.1165 34.0297 44.3356 35.878 42.9301 37.2128L34.9393 44.8111C34.7744 44.948 34.679 45.1448 34.679 45.3587V47.0786H27.0005V40.798C27.0005 39.8311 27.3996 38.9155 28.1024 38.2481L30.3755 36.0748L36.9435 29.8199C37.7417 29.0669 38.9303 29.0754 39.6678 29.8199C40.3966 30.5643 40.3706 31.7451 39.5811 32.5066L33.0218 38.7615C32.7355 39.0353 32.7268 39.4888 33.0045 39.7712C33.2821 40.0536 33.7419 40.0707 34.0283 39.7969L40.5962 33.542C41.672 32.5238 41.9323 30.9665 41.3337 29.7086L41.3163 18.5166C41.3163 17.4299 42.1492 16.5913 43.2077 16.5913H43.1991Z" fill="#2B5264"/>
</g>
<defs>
<clipPath id="clip0_278_485">
<rect width="46.5742" height="53.9837" fill="white"/>
</clipPath>
</defs>
</svg>
