<svg width="48" height="46" viewBox="0 0 48 46" fill="none" xmlns="http://www.w3.org/2000/svg">
<g clip-path="url(#clip0_719_249)">
<path d="M48 20.1689V20.7139C47.2814 21.3319 46.7811 22.1973 46.1254 22.8894L43.4225 20.6049V45.8365C43.4225 45.8485 43.2745 46 43.2628 46H4.833C4.82129 46 4.67332 45.8485 4.67332 45.8365V20.6049L1.95662 22.873L0 20.4229L0.0351297 20.2779L24 0L48 20.1689ZM40.1224 42.7302C40.3918 42.048 40.116 41.3864 40.116 40.7139C40.116 33.7733 40.2012 26.8403 40.116 19.9008C40.1075 19.164 40.4982 18.2507 39.9627 17.6632L24.0958 4.25068L23.7754 4.35967C18.5538 8.97439 13.0619 13.3155 7.91377 17.9837C7.74558 18.6278 7.98723 19.2556 7.97871 19.9008C7.89355 26.8414 7.97658 33.7733 7.97871 40.7139C7.97871 41.0104 7.67212 42.7302 8.02555 42.7302H40.1214H40.1224Z" fill="#41B6A6"/>
<path d="M33.7352 29.5423C33.6681 33.5684 31.291 37.321 27.6162 38.8087C19.5066 42.0927 11.7759 33.5869 15.2272 25.4703C16.8889 21.563 20.8607 19.2491 25.006 19.5139C24.2087 18.7379 23.3581 17.9412 22.4522 17.333C22.383 17.2371 22.7907 16.7477 22.8801 16.6289C23.3826 15.9641 23.9798 15.3472 24.528 14.7205L32.0383 21.3123L24.6132 27.7864L24.2544 27.6414L22.4522 25.3483L25.3264 22.7837H23.6764C22.5182 22.7837 20.7915 23.6229 19.9079 24.375C15.6625 27.9859 17.5936 35.3243 23.0483 36.1788C27.0244 36.8011 30.4554 33.5935 30.5427 29.5412H33.7363L33.7352 29.5423Z" fill="#2B5264"/>
</g>
<defs>
<clipPath id="clip0_719_249">
<rect width="48" height="46" fill="white"/>
</clipPath>
</defs>
</svg>
