<svg width="63" height="23" viewBox="0 0 63 23" fill="none" xmlns="http://www.w3.org/2000/svg">
<g clip-path="url(#clip0_281_522)">
<path d="M37.5518 5.45923L37.0173 5.4611C34.1895 5.46857 31.5318 7.54316 31.4178 11.6007C31.3131 15.2939 33.2344 17.8731 36.4827 17.8731C39.1554 17.8731 40.0918 16.0116 40.0918 16.0116C40.2488 17.2526 40.9179 17.6395 42.2635 17.6395V5.45923H37.5518ZM39.9703 12.6343C39.9703 14.3201 39.0003 15.9218 36.9051 15.9218C35.0249 15.9218 33.6755 14.664 33.7671 11.6232C33.8493 8.70941 35.2492 7.42915 37.107 7.42915C37.2509 7.42915 37.3873 7.42541 37.5163 7.41606H39.9703V12.6343Z" fill="#0030A6"/>
<path d="M18.6227 5.36775L18.632 13.8231C18.632 15.051 17.6134 15.6752 16.2677 15.6752C14.8529 15.6752 13.9147 15.051 13.9147 13.8231L13.9072 7.49466C13.9016 5.69109 12.7708 5.36401 11.7803 5.36401V14.3408C11.7803 16.6041 13.8193 17.7181 16.2023 17.7181C18.5853 17.7181 20.7701 16.6041 20.7701 14.3408L20.7627 7.76567C20.7627 5.99386 20.1029 5.36588 18.6227 5.36588V5.36775Z" fill="#0030A6"/>
<path d="M23.8333 10.0252V17.5572H25.9621V9.95231C25.9621 8.3375 26.8255 7.36375 28.4703 7.36375H29.102C30.9654 7.36375 31.2663 6.40309 31.2663 5.36206H28.289C25.6462 5.36206 23.8314 6.8909 23.8314 10.0233L23.8333 10.0252Z" fill="#0030A6"/>
<path d="M6.28526 10.8251L3.67615 10.1093C2.96219 9.91494 2.30991 9.60094 2.30991 8.72439C2.30991 7.84783 2.85753 7.3675 4.0163 7.3675H6.33199C7.35806 7.3675 8.57665 7.03669 8.57665 5.36768L4.21816 5.37141C1.53615 5.37515 0.00170898 6.7283 0.00170898 8.66832C0.00170898 10.4756 1.14553 11.4998 3.19208 12.04L5.4629 12.6381C6.39927 12.8904 6.73382 13.4754 6.73382 14.0809C6.73382 14.9911 6.16004 15.5406 4.75082 15.5574L0.403542 15.5873V17.5572H4.82558C7.50945 17.5572 9.04576 16.1181 9.04576 14.2174C9.04576 12.3166 8.29256 11.3709 6.289 10.8233L6.28526 10.8251Z" fill="#0030A6"/>
<path fill-rule="evenodd" clip-rule="evenodd" d="M54.1616 20.3065C54.1878 20.3065 54.2065 20.329 54.199 20.372C53.8943 21.0971 53.5486 21.6447 52.872 21.9849C51.6889 22.5774 51.0666 22.2391 50.9843 22.198C50.9619 22.1867 50.9432 22.1587 50.9451 22.1325C50.9488 22.1064 50.9694 22.0821 50.9974 22.0802C51.5132 21.9213 53.0664 21.3457 54.1261 20.314C54.1336 20.3065 54.1504 20.3047 54.1616 20.3065ZM54.3055 18.1591C53.4888 18.645 51.8142 19.3571 50.3507 19.7701C48.6107 20.2654 47.2127 20.5047 46.2745 20.3682C45.4558 20.2467 45.0447 19.8655 44.9213 19.7234C44.9045 19.7029 44.8821 19.6842 44.8895 19.6599C44.8933 19.6318 44.9194 19.6057 44.9531 19.6019L45.2727 19.5795C45.9642 19.5309 47.2127 19.501 48.6668 19.2917C50.3489 19.045 53.0458 18.5665 54.2831 18.0824C54.3093 18.088 54.328 18.1086 54.3037 18.1591H54.3055ZM54.427 18.888C54.4494 18.8917 54.47 18.9104 54.4607 18.9553C54.2252 19.2692 53.8327 19.6244 53.3243 19.9851C52.8215 20.3421 52.2309 20.6859 51.616 20.9831C50.9638 21.2934 50.3919 21.5532 49.7919 21.7102C49.1209 21.8858 48.5341 21.9475 48.0481 21.8896C47.6575 21.8447 47.3342 21.727 47.0875 21.5307C47.0744 21.5176 47.0688 21.4971 47.0707 21.4803C47.0744 21.4504 47.0987 21.4298 47.1323 21.4205C48.6387 21.1775 50.0274 20.8056 51.3151 20.3626C52.5842 19.9253 53.6476 19.4188 54.4289 18.8861L54.427 18.888ZM61.0731 12.825C61.0993 12.8306 61.1143 12.8511 61.0993 12.9016C60.4994 13.4062 57.7463 15.6976 56.2642 16.9124L56.2119 16.9573C55.782 17.2806 55.4923 17.3573 55.4456 16.6452C55.4325 16.4732 55.4101 16.3331 55.4101 16.3331C55.3839 16.1835 55.4288 16.1873 55.4867 16.1518C55.9689 15.8546 56.8941 15.3388 57.6305 14.8995C58.9425 14.1164 60.4788 13.1838 61.0713 12.8268L61.0731 12.825ZM59.0472 15.8808C59.0752 15.8845 59.0901 15.9069 59.0771 15.9518C58.4827 16.6377 56.2867 19.0506 55.2942 20.1103C55.1914 20.2187 55.1372 20.1682 55.1783 20.0617C55.1783 20.0617 55.3671 19.5907 55.4475 19.2263C55.4979 19.0039 55.5503 18.8263 55.6699 18.7254C56.9595 17.6414 58.1949 16.5648 59.0116 15.8938L59.0472 15.8808ZM61.7609 11.6344C61.7796 11.6307 61.8133 11.6269 61.817 11.6456C61.8207 11.6568 61.8469 11.6811 61.8039 11.7092C61.5236 11.8905 55.3746 14.4286 55.3148 14.451C54.9765 14.5669 54.6008 14.6267 54.3261 14.1613C54.2121 13.9669 54.1112 13.8099 54.0663 13.737C54.0476 13.7071 53.9803 13.6342 54.1597 13.5894C54.1597 13.5894 55.8942 13.124 57.4342 12.7353C59.2154 12.2886 61.2283 11.7783 61.7591 11.6344H61.7609ZM62.4076 10.7541C62.4319 10.756 62.4506 10.7803 62.4487 10.8027C62.4487 10.8195 62.4319 10.8364 62.4113 10.8382C61.9441 10.9111 53.3935 12.0792 53.3318 12.0886C53.2851 12.0961 53.2327 12.0998 53.1804 12.1017C53.1355 12.1017 53.0851 12.1017 53.0384 12.0942C52.6309 12.0512 52.2366 11.8531 51.8814 11.4774C51.6983 11.2849 51.5376 10.9784 51.4927 10.855C51.4815 10.8382 51.4815 10.8158 51.4946 10.799C51.5076 10.7765 51.5319 10.7672 51.5506 10.7635C51.5506 10.7635 54.4233 10.7579 56.2306 10.7616C57.5781 10.7635 59.0173 10.7653 60.1872 10.7653C61.204 10.7653 62.0114 10.7653 62.4095 10.756L62.4076 10.7541ZM62.9627 9.99718C62.9851 10.0009 63.0019 10.0196 63.0001 10.0439C63.0001 10.0645 62.9777 10.0775 62.9496 10.0775C61.6974 9.98596 50.4498 9.19912 50.4498 9.19912C50.3451 9.18977 50.261 9.18043 50.1601 9.14865C49.2686 8.86457 48.749 8.17865 48.5416 7.48712C48.5341 7.45909 48.5285 7.43479 48.5416 7.41049C48.5546 7.38993 48.5845 7.37498 48.6107 7.38246C48.6126 7.38246 61.8693 9.79346 62.9608 9.99718H62.9627ZM60.6321 7.81419C60.6433 7.8684 60.619 7.88522 60.576 7.87774C60.0919 7.62916 59.0023 7.10958 57.9089 6.56384C56.9819 6.1022 50.6442 3.11555 50.2143 2.89314L49.4574 2.50439C49.3452 2.44832 49.2443 2.38477 49.1434 2.32309C48.8425 2.1418 48.6892 2.0091 48.5247 1.80165C48.3902 1.63344 48.2874 1.4185 48.2033 1.21665C48.0238 0.760617 48.0313 0.162539 48.0425 0.0541377C48.0425 0.0391857 48.0519 0.0167578 48.0743 0.00741287C48.0911 -0.00380108 48.1117 -0.00567008 48.1547 0.00928186L48.9434 0.491482L49.3677 0.751272L51.6871 2.16797C54.9242 4.18648 59.4546 7.06847 60.6339 7.81046L60.6321 7.81419ZM62.0076 9.11875C62.0282 9.12623 62.0394 9.14492 62.0375 9.16174C62.0319 9.18417 62.0133 9.20286 61.9759 9.19725C61.6208 9.09445 60.8694 8.88513 59.92 8.62534C57.7463 8.02913 49.534 5.82932 49.3976 5.79008L49.3602 5.77699C48.8668 5.62373 48.4631 5.3789 48.1528 5.04248C48.0594 4.94716 47.979 4.84063 47.9024 4.72288C47.6276 4.30236 47.5603 3.68933 47.5454 3.57719C47.5454 3.56411 47.551 3.54168 47.5659 3.52673C47.5809 3.5099 47.6052 3.5043 47.6482 3.51364L48.9901 4.03883C52.1767 5.2761 60.6321 8.56179 62.0076 9.12249V9.11875Z" fill="#00ABC3"/>
</g>
<defs>
<clipPath id="clip0_281_522">
<rect width="63" height="22.3326" fill="white"/>
</clipPath>
</defs>
</svg>
