<svg width="44" height="44" viewBox="0 0 44 44" fill="none" xmlns="http://www.w3.org/2000/svg">
<circle cx="22" cy="22" r="22" fill="#F5F8F8"/>
<path d="M11.93 27.5299C11.8 26.8399 11.22 26.3399 10.5 26.3399C9.68002 26.3299 9.02002 26.9999 9.02002 27.8199C9.02002 28.6399 9.68002 29.2999 10.5 29.2999C11.21 29.2999 11.82 28.7999 11.93 28.1099H15.1L17.35 25.4399H26.05L28.3 28.1099H31.47C31.6 28.7999 32.18 29.2999 32.9 29.2999C33.72 29.2999 34.38 28.6399 34.38 27.8199C34.38 26.9999 33.72 26.3399 32.9 26.3399C32.19 26.3399 31.58 26.8399 31.47 27.5299H28.56L26.26 24.8599H17.05L14.8 27.5299H11.92H11.93ZM32.86 26.8899C33.36 26.8899 33.79 27.2899 33.79 27.8199C33.79 28.3499 33.39 28.7499 32.86 28.7499C32.33 28.7499 31.93 28.3499 31.93 27.8199C31.93 27.2899 32.35 26.8899 32.86 26.8899ZM10.47 28.7199C9.97002 28.7199 9.54002 28.3199 9.54002 27.7899C9.54002 27.2599 9.94002 26.8599 10.47 26.8599C11 26.8599 11.4 27.2599 11.4 27.7899C11.4 28.3199 10.98 28.7199 10.47 28.7199Z" fill="#2E6DF1"/>
<path d="M31.4 16.8599H28.23L25.98 19.5299H17.33L15.08 16.8599H11.91C11.78 16.1699 11.2 15.6699 10.48 15.6699C9.66 15.6699 9 16.3299 9 17.1499C9 17.9699 9.66 18.6299 10.48 18.6299C11.19 18.6299 11.8 18.1299 11.91 17.4399H14.82L17.07 20.0899H26.28L28.53 17.4199H31.44C31.57 18.1099 32.15 18.6099 32.87 18.6099C33.69 18.6099 34.35 17.9499 34.35 17.1299C34.35 16.3099 33.69 15.6499 32.87 15.6499C32.16 15.6799 31.55 16.2099 31.41 16.8699L31.4 16.8599ZM10.47 18.0499C9.97 18.0499 9.54 17.6499 9.54 17.1199C9.54 16.5899 9.94 16.1899 10.47 16.1899C11 16.1899 11.4 16.5899 11.4 17.1199C11.4 17.6499 10.98 18.0499 10.47 18.0499ZM33.75 17.1499C33.75 17.6499 33.35 18.0799 32.82 18.0799C32.29 18.0799 31.89 17.6799 31.89 17.1499C31.89 16.6199 32.29 16.2199 32.82 16.2199C33.35 16.2199 33.75 16.6399 33.75 17.1499Z" fill="#2E6DF1"/>
<path d="M24.6804 14.48C24.6804 14.8 24.7904 15.11 24.9704 15.35L23.7804 16.86H19.5704L18.3804 15.35C18.5704 15.11 18.6704 14.79 18.6704 14.48C18.6704 13.66 18.0104 13 17.1904 13C16.3704 13 15.7104 13.66 15.7104 14.48C15.7104 15.3 16.3704 15.96 17.1904 15.96C17.4804 15.96 17.7204 15.88 17.9604 15.75L19.3104 17.44H24.0504L25.4004 15.75C25.6104 15.88 25.8805 15.96 26.1705 15.96C26.9904 15.96 27.6504 15.3 27.6504 14.48C27.6504 13.66 26.9904 13 26.1705 13C25.3505 13 24.6904 13.66 24.6904 14.48H24.6804ZM17.1904 15.38C16.6904 15.38 16.2604 14.98 16.2604 14.45C16.2604 13.92 16.6604 13.52 17.1904 13.52C17.7204 13.52 18.1204 13.92 18.1204 14.45C18.1204 14.64 18.0704 14.79 17.9904 14.93L17.6204 15.22L17.6504 15.25C17.4904 15.36 17.3604 15.38 17.2004 15.38H17.1904ZM27.0604 14.48C27.0604 14.98 26.6604 15.41 26.1304 15.41C25.9704 15.41 25.8404 15.38 25.7104 15.3L25.7404 15.27L25.3704 14.95C25.2904 14.82 25.2404 14.63 25.2404 14.47C25.2404 13.97 25.6405 13.54 26.1705 13.54C26.6504 13.54 27.0704 13.96 27.0704 14.47L27.0604 14.48Z" fill="#2E6DF1"/>
<path d="M25.3405 29.25L24.0404 27.53H19.2804L17.9804 29.25C17.7404 29.09 17.4804 29.01 17.1904 29.01C16.3704 29.01 15.7104 29.67 15.7104 30.49C15.7104 31.31 16.3704 31.97 17.1904 31.97C18.0104 31.97 18.6704 31.31 18.6704 30.49C18.6704 30.17 18.5604 29.88 18.4104 29.64L19.5704 28.08H23.7804L24.9404 29.64C24.7804 29.88 24.6804 30.17 24.6804 30.49C24.6804 31.31 25.3405 31.97 26.1604 31.97C26.9804 31.97 27.6404 31.31 27.6404 30.49C27.6404 29.67 26.9804 29.01 26.1604 29.01C25.8405 29.01 25.5805 29.09 25.3405 29.25ZM18.0904 30.46C18.0904 30.96 17.6904 31.39 17.1604 31.39C16.6304 31.39 16.2304 30.99 16.2304 30.46C16.2304 29.93 16.6304 29.53 17.1604 29.53C17.6904 29.56 18.0904 29.95 18.0904 30.46ZM27.0604 30.46C27.0604 30.96 26.6604 31.39 26.1304 31.39C25.6004 31.39 25.2004 30.99 25.2004 30.46C25.2004 29.93 25.6004 29.53 26.1304 29.53C26.6304 29.56 27.0604 29.95 27.0604 30.46Z" fill="#2E6DF1"/>
<path d="M14.9404 20.99C14.1204 20.99 13.4604 21.65 13.4604 22.47C13.4604 23.29 14.1204 23.95 14.9404 23.95C15.6504 23.95 16.2604 23.45 16.3704 22.76H26.9305C27.0605 23.45 27.6405 23.95 28.3605 23.95C29.1805 23.95 29.8405 23.29 29.8405 22.47C29.8405 21.65 29.1805 20.99 28.3605 20.99C27.6505 20.99 27.0405 21.49 26.9305 22.18H16.4004C16.2704 21.52 15.6604 20.99 14.9404 20.99ZM14.9404 23.4C14.4404 23.4 14.0104 23 14.0104 22.47C14.0104 21.94 14.4104 21.54 14.9404 21.54C15.4704 21.54 15.8704 21.94 15.8704 22.47C15.8704 23 15.4504 23.4 14.9404 23.4ZM28.3804 21.55C28.8804 21.55 29.3104 21.95 29.3104 22.48C29.3104 23.01 28.9104 23.41 28.3804 23.41C27.8504 23.41 27.4504 23.01 27.4504 22.48C27.4504 21.95 27.8704 21.55 28.3804 21.55Z" fill="#2E6DF1"/>
</svg>
