<svg width="20" height="18" viewBox="0 0 20 18" fill="none" xmlns="http://www.w3.org/2000/svg">
<g clip-path="url(#clip0_278_1700)">
<path d="M9.75536 0.378859C10.4544 0.292055 11.0913 0.584033 11.5029 1.14431L19.4719 14.9619C20.0078 16.1851 19.2544 17.495 17.9651 17.6371H2.04274C0.761189 17.5187 -0.031044 16.1141 0.55148 14.9383L8.58255 1.05751C8.89323 0.694511 9.27381 0.434098 9.75536 0.378859Z" stroke="white" stroke-width="0.92" stroke-miterlimit="10"/>
<path d="M9.83287 4.56898C10.2911 4.50585 10.7338 4.70313 10.9824 5.08981C11.2309 5.47648 11.1766 5.85526 11.1688 6.28928C11.1377 7.50454 10.9979 8.77503 10.928 9.99029C10.8892 10.5742 10.8892 11.1503 10.8426 11.7343C10.827 11.7895 10.796 11.7895 10.7494 11.7974C10.5863 11.829 9.42899 11.829 9.26588 11.7974C9.24258 11.7974 9.21928 11.7974 9.20375 11.7816L9.16491 11.6948C9.08724 9.96661 8.94744 8.24632 8.8853 6.52602C8.86977 6.04465 8.73773 5.61852 8.98627 5.16083C9.15715 4.84518 9.48336 4.60844 9.84064 4.56109L9.83287 4.56898Z" fill="white"/>
<path d="M10.0039 15.6169C10.6945 15.6169 11.2544 15.0481 11.2544 14.3464C11.2544 13.6447 10.6945 13.0759 10.0039 13.0759C9.31328 13.0759 8.75342 13.6447 8.75342 14.3464C8.75342 15.0481 9.31328 15.6169 10.0039 15.6169Z" fill="white"/>
</g>
<defs>
<clipPath id="clip0_278_1700">
<rect width="20" height="18" fill="white"/>
</clipPath>
</defs>
</svg>
