<svg width="9" height="9" viewBox="0 0 9 9" fill="none" xmlns="http://www.w3.org/2000/svg">
<path d="M4.96735 4.29767C5.61528 4.83041 6.29199 5.45673 6.99751 6.17664C7.71742 6.89656 8.31495 7.58767 8.79009 8.25C8.7757 8.50916 8.68931 8.68914 8.53093 8.78993C8.37254 8.90512 8.19257 8.94111 7.99099 8.89792C7.50145 8.49477 7.0695 8.10601 6.69515 7.73166C6.32079 7.3429 5.84565 6.83177 5.26972 6.19824L4.23304 5.09677C3.91628 5.41354 3.45554 6.01106 2.85081 6.88936C2.54844 7.33571 2.29647 7.68846 2.0949 7.94763C1.90772 8.1924 1.74934 8.33639 1.61976 8.37958C1.43258 8.37958 1.2742 8.34358 1.14461 8.27159C1.01503 8.1852 0.950236 8.06282 0.950236 7.90444C0.950236 7.80365 0.971833 7.70286 1.01503 7.60207C1.14461 7.24212 1.38938 6.83177 1.74934 6.37102C2.1237 5.91028 2.69243 5.27675 3.45554 4.47045L1.79253 2.80745C1.14461 2.15953 0.719863 1.72038 0.518288 1.49001C0.316712 1.25963 0.143933 1.00766 -5.00899e-05 0.734097C0.0287465 0.532522 0.107937 0.374141 0.237521 0.258955C0.381504 0.12937 0.539885 0.064578 0.712664 0.064578C1.15901 0.510924 1.71334 1.07966 2.37566 1.77077C3.22516 2.64907 3.85149 3.26819 4.25464 3.62815C4.62899 3.2106 4.79457 3.02342 4.75138 3.06662C5.54328 2.15953 6.2416 1.42521 6.84633 0.863682C7.46545 0.287751 7.96939 -0.000214036 8.35815 -0.000214036C8.64611 -0.000214036 8.81889 0.165366 8.87648 0.496526C8.87648 0.582916 8.67491 0.820487 8.27176 1.20924C7.883 1.5836 7.45106 1.98675 6.97591 2.4187C5.91044 3.39778 5.24092 4.0241 4.96735 4.29767Z" fill="#B2B2B2"/>
</svg>
